%TF.GenerationSoftware,KiCad,Pcbnew,(6.0.6)*%
%TF.CreationDate,2022-06-30T18:10:47+10:00*%
%TF.ProjectId,modelh,6d6f6465-6c68-42e6-9b69-6361645f7063,v0.1*%
%TF.SameCoordinates,Original*%
%TF.FileFunction,Legend,Top*%
%TF.FilePolarity,Positive*%
%FSLAX46Y46*%
G04 Gerber Fmt 4.6, Leading zero omitted, Abs format (unit mm)*
G04 Created by KiCad (PCBNEW (6.0.6)) date 2022-06-30 18:10:47*
%MOMM*%
%LPD*%
G01*
G04 APERTURE LIST*
G04 Aperture macros list*
%AMRoundRect*
0 Rectangle with rounded corners*
0 $1 Rounding radius*
0 $2 $3 $4 $5 $6 $7 $8 $9 X,Y pos of 4 corners*
0 Add a 4 corners polygon primitive as box body*
4,1,4,$2,$3,$4,$5,$6,$7,$8,$9,$2,$3,0*
0 Add four circle primitives for the rounded corners*
1,1,$1+$1,$2,$3*
1,1,$1+$1,$4,$5*
1,1,$1+$1,$6,$7*
1,1,$1+$1,$8,$9*
0 Add four rect primitives between the rounded corners*
20,1,$1+$1,$2,$3,$4,$5,0*
20,1,$1+$1,$4,$5,$6,$7,0*
20,1,$1+$1,$6,$7,$8,$9,0*
20,1,$1+$1,$8,$9,$2,$3,0*%
G04 Aperture macros list end*
%ADD10C,0.150000*%
%ADD11C,0.300000*%
%ADD12C,0.120000*%
%ADD13C,0.010000*%
%ADD14O,1.801600X1.801600*%
%ADD15RoundRect,0.050800X0.850000X0.850000X-0.850000X0.850000X-0.850000X-0.850000X0.850000X-0.850000X0*%
%ADD16C,1.801600*%
%ADD17C,2.101600*%
%ADD18RoundRect,0.125800X0.521491X0.415425X0.415425X0.521491X-0.521491X-0.415425X-0.415425X-0.521491X0*%
%ADD19RoundRect,0.125800X0.521491X-0.415425X-0.415425X0.521491X-0.521491X0.415425X0.415425X-0.521491X0*%
%ADD20RoundRect,0.198300X-0.172500X0.147500X-0.172500X-0.147500X0.172500X-0.147500X0.172500X0.147500X0*%
%ADD21RoundRect,0.269550X0.218750X0.256250X-0.218750X0.256250X-0.218750X-0.256250X0.218750X-0.256250X0*%
%ADD22C,3.601600*%
%ADD23RoundRect,0.050800X0.850000X-0.850000X0.850000X0.850000X-0.850000X0.850000X-0.850000X-0.850000X0*%
%ADD24RoundRect,0.198300X0.147500X0.172500X-0.147500X0.172500X-0.147500X-0.172500X0.147500X-0.172500X0*%
%ADD25RoundRect,0.300800X-0.325000X-0.450000X0.325000X-0.450000X0.325000X0.450000X-0.325000X0.450000X0*%
%ADD26RoundRect,0.294550X0.243750X0.456250X-0.243750X0.456250X-0.243750X-0.456250X0.243750X-0.456250X0*%
%ADD27RoundRect,0.300800X-0.450000X0.325000X-0.450000X-0.325000X0.450000X-0.325000X0.450000X0.325000X0*%
%ADD28RoundRect,0.269550X-0.256250X0.218750X-0.256250X-0.218750X0.256250X-0.218750X0.256250X0.218750X0*%
%ADD29RoundRect,0.294550X0.456250X-0.243750X0.456250X0.243750X-0.456250X0.243750X-0.456250X-0.243750X0*%
%ADD30RoundRect,0.198300X-0.147500X-0.172500X0.147500X-0.172500X0.147500X0.172500X-0.147500X0.172500X0*%
%ADD31RoundRect,0.198300X0.172500X-0.147500X0.172500X0.147500X-0.172500X0.147500X-0.172500X-0.147500X0*%
%ADD32O,1.828800X1.828800*%
%ADD33RoundRect,0.050800X0.863600X-0.863600X0.863600X0.863600X-0.863600X0.863600X-0.863600X-0.863600X0*%
%ADD34RoundRect,0.269550X-0.218750X-0.256250X0.218750X-0.256250X0.218750X0.256250X-0.218750X0.256250X0*%
%ADD35RoundRect,0.050800X1.375000X0.500000X-1.375000X0.500000X-1.375000X-0.500000X1.375000X-0.500000X0*%
%ADD36RoundRect,0.050800X1.000000X1.200000X-1.000000X1.200000X-1.000000X-1.200000X1.000000X-1.200000X0*%
%ADD37RoundRect,0.050800X-0.750000X1.000000X-0.750000X-1.000000X0.750000X-1.000000X0.750000X1.000000X0*%
%ADD38RoundRect,0.050800X-1.900000X1.000000X-1.900000X-1.000000X1.900000X-1.000000X1.900000X1.000000X0*%
%ADD39RoundRect,0.269550X0.256250X-0.218750X0.256250X0.218750X-0.256250X0.218750X-0.256250X-0.218750X0*%
%ADD40C,4.101600*%
%ADD41RoundRect,0.294550X-0.456250X0.243750X-0.456250X-0.243750X0.456250X-0.243750X0.456250X0.243750X0*%
%ADD42C,0.901600*%
%ADD43C,0.701600*%
G04 APERTURE END LIST*
D10*
X98204761Y-70228571D02*
X98347619Y-70276190D01*
X98395238Y-70323809D01*
X98442857Y-70419047D01*
X98442857Y-70561904D01*
X98395238Y-70657142D01*
X98347619Y-70704761D01*
X98252380Y-70752380D01*
X97871428Y-70752380D01*
X97871428Y-69752380D01*
X98204761Y-69752380D01*
X98300000Y-69800000D01*
X98347619Y-69847619D01*
X98395238Y-69942857D01*
X98395238Y-70038095D01*
X98347619Y-70133333D01*
X98300000Y-70180952D01*
X98204761Y-70228571D01*
X97871428Y-70228571D01*
X99014285Y-70752380D02*
X98919047Y-70704761D01*
X98871428Y-70657142D01*
X98823809Y-70561904D01*
X98823809Y-70276190D01*
X98871428Y-70180952D01*
X98919047Y-70133333D01*
X99014285Y-70085714D01*
X99157142Y-70085714D01*
X99252380Y-70133333D01*
X99300000Y-70180952D01*
X99347619Y-70276190D01*
X99347619Y-70561904D01*
X99300000Y-70657142D01*
X99252380Y-70704761D01*
X99157142Y-70752380D01*
X99014285Y-70752380D01*
X99919047Y-70752380D02*
X99823809Y-70704761D01*
X99776190Y-70657142D01*
X99728571Y-70561904D01*
X99728571Y-70276190D01*
X99776190Y-70180952D01*
X99823809Y-70133333D01*
X99919047Y-70085714D01*
X100061904Y-70085714D01*
X100157142Y-70133333D01*
X100204761Y-70180952D01*
X100252380Y-70276190D01*
X100252380Y-70561904D01*
X100204761Y-70657142D01*
X100157142Y-70704761D01*
X100061904Y-70752380D01*
X99919047Y-70752380D01*
X100538095Y-70085714D02*
X100919047Y-70085714D01*
X100680952Y-69752380D02*
X100680952Y-70609523D01*
X100728571Y-70704761D01*
X100823809Y-70752380D01*
X100919047Y-70752380D01*
X101442857Y-69752380D02*
X101538095Y-69752380D01*
X101633333Y-69800000D01*
X101680952Y-69847619D01*
X101728571Y-69942857D01*
X101776190Y-70133333D01*
X101776190Y-70371428D01*
X101728571Y-70561904D01*
X101680952Y-70657142D01*
X101633333Y-70704761D01*
X101538095Y-70752380D01*
X101442857Y-70752380D01*
X101347619Y-70704761D01*
X101300000Y-70657142D01*
X101252380Y-70561904D01*
X101204761Y-70371428D01*
X101204761Y-70133333D01*
X101252380Y-69942857D01*
X101300000Y-69847619D01*
X101347619Y-69800000D01*
X101442857Y-69752380D01*
X87504761Y-70228571D02*
X87647619Y-70276190D01*
X87695238Y-70323809D01*
X87742857Y-70419047D01*
X87742857Y-70561904D01*
X87695238Y-70657142D01*
X87647619Y-70704761D01*
X87552380Y-70752380D01*
X87171428Y-70752380D01*
X87171428Y-69752380D01*
X87504761Y-69752380D01*
X87600000Y-69800000D01*
X87647619Y-69847619D01*
X87695238Y-69942857D01*
X87695238Y-70038095D01*
X87647619Y-70133333D01*
X87600000Y-70180952D01*
X87504761Y-70228571D01*
X87171428Y-70228571D01*
X88314285Y-70752380D02*
X88219047Y-70704761D01*
X88171428Y-70657142D01*
X88123809Y-70561904D01*
X88123809Y-70276190D01*
X88171428Y-70180952D01*
X88219047Y-70133333D01*
X88314285Y-70085714D01*
X88457142Y-70085714D01*
X88552380Y-70133333D01*
X88600000Y-70180952D01*
X88647619Y-70276190D01*
X88647619Y-70561904D01*
X88600000Y-70657142D01*
X88552380Y-70704761D01*
X88457142Y-70752380D01*
X88314285Y-70752380D01*
X89219047Y-70752380D02*
X89123809Y-70704761D01*
X89076190Y-70657142D01*
X89028571Y-70561904D01*
X89028571Y-70276190D01*
X89076190Y-70180952D01*
X89123809Y-70133333D01*
X89219047Y-70085714D01*
X89361904Y-70085714D01*
X89457142Y-70133333D01*
X89504761Y-70180952D01*
X89552380Y-70276190D01*
X89552380Y-70561904D01*
X89504761Y-70657142D01*
X89457142Y-70704761D01*
X89361904Y-70752380D01*
X89219047Y-70752380D01*
X89838095Y-70085714D02*
X90219047Y-70085714D01*
X89980952Y-69752380D02*
X89980952Y-70609523D01*
X90028571Y-70704761D01*
X90123809Y-70752380D01*
X90219047Y-70752380D01*
X91076190Y-70752380D02*
X90504761Y-70752380D01*
X90790476Y-70752380D02*
X90790476Y-69752380D01*
X90695238Y-69895238D01*
X90600000Y-69990476D01*
X90504761Y-70038095D01*
X196507023Y-81207142D02*
X196459404Y-81254761D01*
X196316547Y-81302380D01*
X196221309Y-81302380D01*
X196078452Y-81254761D01*
X195983214Y-81159523D01*
X195935595Y-81064285D01*
X195887976Y-80873809D01*
X195887976Y-80730952D01*
X195935595Y-80540476D01*
X195983214Y-80445238D01*
X196078452Y-80350000D01*
X196221309Y-80302380D01*
X196316547Y-80302380D01*
X196459404Y-80350000D01*
X196507023Y-80397619D01*
X197364166Y-80635714D02*
X197364166Y-81302380D01*
X196935595Y-80635714D02*
X196935595Y-81159523D01*
X196983214Y-81254761D01*
X197078452Y-81302380D01*
X197221309Y-81302380D01*
X197316547Y-81254761D01*
X197364166Y-81207142D01*
X197792738Y-81254761D02*
X197887976Y-81302380D01*
X198078452Y-81302380D01*
X198173690Y-81254761D01*
X198221309Y-81159523D01*
X198221309Y-81111904D01*
X198173690Y-81016666D01*
X198078452Y-80969047D01*
X197935595Y-80969047D01*
X197840357Y-80921428D01*
X197792738Y-80826190D01*
X197792738Y-80778571D01*
X197840357Y-80683333D01*
X197935595Y-80635714D01*
X198078452Y-80635714D01*
X198173690Y-80683333D01*
X198507023Y-80635714D02*
X198887976Y-80635714D01*
X198649880Y-80302380D02*
X198649880Y-81159523D01*
X198697500Y-81254761D01*
X198792738Y-81302380D01*
X198887976Y-81302380D01*
X199364166Y-81302380D02*
X199268928Y-81254761D01*
X199221309Y-81207142D01*
X199173690Y-81111904D01*
X199173690Y-80826190D01*
X199221309Y-80730952D01*
X199268928Y-80683333D01*
X199364166Y-80635714D01*
X199507023Y-80635714D01*
X199602261Y-80683333D01*
X199649880Y-80730952D01*
X199697500Y-80826190D01*
X199697500Y-81111904D01*
X199649880Y-81207142D01*
X199602261Y-81254761D01*
X199507023Y-81302380D01*
X199364166Y-81302380D01*
X200126071Y-81302380D02*
X200126071Y-80635714D01*
X200126071Y-80730952D02*
X200173690Y-80683333D01*
X200268928Y-80635714D01*
X200411785Y-80635714D01*
X200507023Y-80683333D01*
X200554642Y-80778571D01*
X200554642Y-81302380D01*
X200554642Y-80778571D02*
X200602261Y-80683333D01*
X200697500Y-80635714D01*
X200840357Y-80635714D01*
X200935595Y-80683333D01*
X200983214Y-80778571D01*
X200983214Y-81302380D01*
X202697500Y-81302380D02*
X202221309Y-81302380D01*
X202221309Y-80302380D01*
X203030833Y-80778571D02*
X203364166Y-80778571D01*
X203507023Y-81302380D02*
X203030833Y-81302380D01*
X203030833Y-80302380D01*
X203507023Y-80302380D01*
X203935595Y-81302380D02*
X203935595Y-80302380D01*
X204173690Y-80302380D01*
X204316547Y-80350000D01*
X204411785Y-80445238D01*
X204459404Y-80540476D01*
X204507023Y-80730952D01*
X204507023Y-80873809D01*
X204459404Y-81064285D01*
X204411785Y-81159523D01*
X204316547Y-81254761D01*
X204173690Y-81302380D01*
X203935595Y-81302380D01*
X78379523Y-54892380D02*
X77903333Y-54892380D01*
X77855714Y-55368571D01*
X77903333Y-55320952D01*
X77998571Y-55273333D01*
X78236666Y-55273333D01*
X78331904Y-55320952D01*
X78379523Y-55368571D01*
X78427142Y-55463809D01*
X78427142Y-55701904D01*
X78379523Y-55797142D01*
X78331904Y-55844761D01*
X78236666Y-55892380D01*
X77998571Y-55892380D01*
X77903333Y-55844761D01*
X77855714Y-55797142D01*
X78712857Y-54892380D02*
X79046190Y-55892380D01*
X79379523Y-54892380D01*
X192008095Y-77690000D02*
X191912857Y-77642380D01*
X191770000Y-77642380D01*
X191627142Y-77690000D01*
X191531904Y-77785238D01*
X191484285Y-77880476D01*
X191436666Y-78070952D01*
X191436666Y-78213809D01*
X191484285Y-78404285D01*
X191531904Y-78499523D01*
X191627142Y-78594761D01*
X191770000Y-78642380D01*
X191865238Y-78642380D01*
X192008095Y-78594761D01*
X192055714Y-78547142D01*
X192055714Y-78213809D01*
X191865238Y-78213809D01*
X192484285Y-78642380D02*
X192484285Y-77642380D01*
X193055714Y-78642380D01*
X193055714Y-77642380D01*
X193531904Y-78642380D02*
X193531904Y-77642380D01*
X193770000Y-77642380D01*
X193912857Y-77690000D01*
X194008095Y-77785238D01*
X194055714Y-77880476D01*
X194103333Y-78070952D01*
X194103333Y-78213809D01*
X194055714Y-78404285D01*
X194008095Y-78499523D01*
X193912857Y-78594761D01*
X193770000Y-78642380D01*
X193531904Y-78642380D01*
X191193809Y-75092380D02*
X191812857Y-75092380D01*
X191479523Y-75473333D01*
X191622380Y-75473333D01*
X191717619Y-75520952D01*
X191765238Y-75568571D01*
X191812857Y-75663809D01*
X191812857Y-75901904D01*
X191765238Y-75997142D01*
X191717619Y-76044761D01*
X191622380Y-76092380D01*
X191336666Y-76092380D01*
X191241428Y-76044761D01*
X191193809Y-75997142D01*
X192241428Y-75997142D02*
X192289047Y-76044761D01*
X192241428Y-76092380D01*
X192193809Y-76044761D01*
X192241428Y-75997142D01*
X192241428Y-76092380D01*
X192622380Y-75092380D02*
X193241428Y-75092380D01*
X192908095Y-75473333D01*
X193050952Y-75473333D01*
X193146190Y-75520952D01*
X193193809Y-75568571D01*
X193241428Y-75663809D01*
X193241428Y-75901904D01*
X193193809Y-75997142D01*
X193146190Y-76044761D01*
X193050952Y-76092380D01*
X192765238Y-76092380D01*
X192670000Y-76044761D01*
X192622380Y-75997142D01*
X193527142Y-75092380D02*
X193860476Y-76092380D01*
X194193809Y-75092380D01*
X191500952Y-73492380D02*
X191024761Y-73492380D01*
X191024761Y-72492380D01*
X191834285Y-72968571D02*
X192167619Y-72968571D01*
X192310476Y-73492380D02*
X191834285Y-73492380D01*
X191834285Y-72492380D01*
X192310476Y-72492380D01*
X192739047Y-73492380D02*
X192739047Y-72492380D01*
X192977142Y-72492380D01*
X193120000Y-72540000D01*
X193215238Y-72635238D01*
X193262857Y-72730476D01*
X193310476Y-72920952D01*
X193310476Y-73063809D01*
X193262857Y-73254285D01*
X193215238Y-73349523D01*
X193120000Y-73444761D01*
X192977142Y-73492380D01*
X192739047Y-73492380D01*
X193691428Y-72587619D02*
X193739047Y-72540000D01*
X193834285Y-72492380D01*
X194072380Y-72492380D01*
X194167619Y-72540000D01*
X194215238Y-72587619D01*
X194262857Y-72682857D01*
X194262857Y-72778095D01*
X194215238Y-72920952D01*
X193643809Y-73492380D01*
X194262857Y-73492380D01*
X191550952Y-70942380D02*
X191074761Y-70942380D01*
X191074761Y-69942380D01*
X191884285Y-70418571D02*
X192217619Y-70418571D01*
X192360476Y-70942380D02*
X191884285Y-70942380D01*
X191884285Y-69942380D01*
X192360476Y-69942380D01*
X192789047Y-70942380D02*
X192789047Y-69942380D01*
X193027142Y-69942380D01*
X193170000Y-69990000D01*
X193265238Y-70085238D01*
X193312857Y-70180476D01*
X193360476Y-70370952D01*
X193360476Y-70513809D01*
X193312857Y-70704285D01*
X193265238Y-70799523D01*
X193170000Y-70894761D01*
X193027142Y-70942380D01*
X192789047Y-70942380D01*
X194312857Y-70942380D02*
X193741428Y-70942380D01*
X194027142Y-70942380D02*
X194027142Y-69942380D01*
X193931904Y-70085238D01*
X193836666Y-70180476D01*
X193741428Y-70228095D01*
X191550952Y-68392380D02*
X191074761Y-68392380D01*
X191074761Y-67392380D01*
X191884285Y-67868571D02*
X192217619Y-67868571D01*
X192360476Y-68392380D02*
X191884285Y-68392380D01*
X191884285Y-67392380D01*
X192360476Y-67392380D01*
X192789047Y-68392380D02*
X192789047Y-67392380D01*
X193027142Y-67392380D01*
X193170000Y-67440000D01*
X193265238Y-67535238D01*
X193312857Y-67630476D01*
X193360476Y-67820952D01*
X193360476Y-67963809D01*
X193312857Y-68154285D01*
X193265238Y-68249523D01*
X193170000Y-68344761D01*
X193027142Y-68392380D01*
X192789047Y-68392380D01*
X193979523Y-67392380D02*
X194074761Y-67392380D01*
X194170000Y-67440000D01*
X194217619Y-67487619D01*
X194265238Y-67582857D01*
X194312857Y-67773333D01*
X194312857Y-68011428D01*
X194265238Y-68201904D01*
X194217619Y-68297142D01*
X194170000Y-68344761D01*
X194074761Y-68392380D01*
X193979523Y-68392380D01*
X193884285Y-68344761D01*
X193836666Y-68297142D01*
X193789047Y-68201904D01*
X193741428Y-68011428D01*
X193741428Y-67773333D01*
X193789047Y-67582857D01*
X193836666Y-67487619D01*
X193884285Y-67440000D01*
X193979523Y-67392380D01*
D11*
X207298571Y-65018571D02*
X206584285Y-65018571D01*
X206584285Y-63518571D01*
X207798571Y-64232857D02*
X208298571Y-64232857D01*
X208512857Y-65018571D02*
X207798571Y-65018571D01*
X207798571Y-63518571D01*
X208512857Y-63518571D01*
X209155714Y-65018571D02*
X209155714Y-63518571D01*
X209512857Y-63518571D01*
X209727142Y-63590000D01*
X209870000Y-63732857D01*
X209941428Y-63875714D01*
X210012857Y-64161428D01*
X210012857Y-64375714D01*
X209941428Y-64661428D01*
X209870000Y-64804285D01*
X209727142Y-64947142D01*
X209512857Y-65018571D01*
X209155714Y-65018571D01*
X210584285Y-64947142D02*
X210727142Y-65018571D01*
X211012857Y-65018571D01*
X211155714Y-64947142D01*
X211227142Y-64804285D01*
X211227142Y-64732857D01*
X211155714Y-64590000D01*
X211012857Y-64518571D01*
X210798571Y-64518571D01*
X210655714Y-64447142D01*
X210584285Y-64304285D01*
X210584285Y-64232857D01*
X210655714Y-64090000D01*
X210798571Y-64018571D01*
X211012857Y-64018571D01*
X211155714Y-64090000D01*
X107409285Y-80928571D02*
X106909285Y-80214285D01*
X106552142Y-80928571D02*
X106552142Y-79428571D01*
X107123571Y-79428571D01*
X107266428Y-79500000D01*
X107337857Y-79571428D01*
X107409285Y-79714285D01*
X107409285Y-79928571D01*
X107337857Y-80071428D01*
X107266428Y-80142857D01*
X107123571Y-80214285D01*
X106552142Y-80214285D01*
X108623571Y-80857142D02*
X108480714Y-80928571D01*
X108195000Y-80928571D01*
X108052142Y-80857142D01*
X107980714Y-80714285D01*
X107980714Y-80142857D01*
X108052142Y-80000000D01*
X108195000Y-79928571D01*
X108480714Y-79928571D01*
X108623571Y-80000000D01*
X108695000Y-80142857D01*
X108695000Y-80285714D01*
X107980714Y-80428571D01*
X109266428Y-80857142D02*
X109409285Y-80928571D01*
X109695000Y-80928571D01*
X109837857Y-80857142D01*
X109909285Y-80714285D01*
X109909285Y-80642857D01*
X109837857Y-80500000D01*
X109695000Y-80428571D01*
X109480714Y-80428571D01*
X109337857Y-80357142D01*
X109266428Y-80214285D01*
X109266428Y-80142857D01*
X109337857Y-80000000D01*
X109480714Y-79928571D01*
X109695000Y-79928571D01*
X109837857Y-80000000D01*
X111123571Y-80857142D02*
X110980714Y-80928571D01*
X110695000Y-80928571D01*
X110552142Y-80857142D01*
X110480714Y-80714285D01*
X110480714Y-80142857D01*
X110552142Y-80000000D01*
X110695000Y-79928571D01*
X110980714Y-79928571D01*
X111123571Y-80000000D01*
X111195000Y-80142857D01*
X111195000Y-80285714D01*
X110480714Y-80428571D01*
X111623571Y-79928571D02*
X112195000Y-79928571D01*
X111837857Y-79428571D02*
X111837857Y-80714285D01*
X111909285Y-80857142D01*
X112052142Y-80928571D01*
X112195000Y-80928571D01*
X74922142Y-73418571D02*
X74922142Y-71918571D01*
X75279285Y-71918571D01*
X75493571Y-71990000D01*
X75636428Y-72132857D01*
X75707857Y-72275714D01*
X75779285Y-72561428D01*
X75779285Y-72775714D01*
X75707857Y-73061428D01*
X75636428Y-73204285D01*
X75493571Y-73347142D01*
X75279285Y-73418571D01*
X74922142Y-73418571D01*
X76993571Y-73347142D02*
X76850714Y-73418571D01*
X76565000Y-73418571D01*
X76422142Y-73347142D01*
X76350714Y-73204285D01*
X76350714Y-72632857D01*
X76422142Y-72490000D01*
X76565000Y-72418571D01*
X76850714Y-72418571D01*
X76993571Y-72490000D01*
X77065000Y-72632857D01*
X77065000Y-72775714D01*
X76350714Y-72918571D01*
X77707857Y-73418571D02*
X77707857Y-71918571D01*
X77707857Y-72490000D02*
X77850714Y-72418571D01*
X78136428Y-72418571D01*
X78279285Y-72490000D01*
X78350714Y-72561428D01*
X78422142Y-72704285D01*
X78422142Y-73132857D01*
X78350714Y-73275714D01*
X78279285Y-73347142D01*
X78136428Y-73418571D01*
X77850714Y-73418571D01*
X77707857Y-73347142D01*
X79707857Y-72418571D02*
X79707857Y-73418571D01*
X79065000Y-72418571D02*
X79065000Y-73204285D01*
X79136428Y-73347142D01*
X79279285Y-73418571D01*
X79493571Y-73418571D01*
X79636428Y-73347142D01*
X79707857Y-73275714D01*
X81065000Y-72418571D02*
X81065000Y-73632857D01*
X80993571Y-73775714D01*
X80922142Y-73847142D01*
X80779285Y-73918571D01*
X80565000Y-73918571D01*
X80422142Y-73847142D01*
X81065000Y-73347142D02*
X80922142Y-73418571D01*
X80636428Y-73418571D01*
X80493571Y-73347142D01*
X80422142Y-73275714D01*
X80350714Y-73132857D01*
X80350714Y-72704285D01*
X80422142Y-72561428D01*
X80493571Y-72490000D01*
X80636428Y-72418571D01*
X80922142Y-72418571D01*
X81065000Y-72490000D01*
X116509285Y-55635714D02*
X116437857Y-55707142D01*
X116223571Y-55778571D01*
X116080714Y-55778571D01*
X115866428Y-55707142D01*
X115723571Y-55564285D01*
X115652142Y-55421428D01*
X115580714Y-55135714D01*
X115580714Y-54921428D01*
X115652142Y-54635714D01*
X115723571Y-54492857D01*
X115866428Y-54350000D01*
X116080714Y-54278571D01*
X116223571Y-54278571D01*
X116437857Y-54350000D01*
X116509285Y-54421428D01*
X117366428Y-55778571D02*
X117223571Y-55707142D01*
X117152142Y-55635714D01*
X117080714Y-55492857D01*
X117080714Y-55064285D01*
X117152142Y-54921428D01*
X117223571Y-54850000D01*
X117366428Y-54778571D01*
X117580714Y-54778571D01*
X117723571Y-54850000D01*
X117795000Y-54921428D01*
X117866428Y-55064285D01*
X117866428Y-55492857D01*
X117795000Y-55635714D01*
X117723571Y-55707142D01*
X117580714Y-55778571D01*
X117366428Y-55778571D01*
X118723571Y-55778571D02*
X118580714Y-55707142D01*
X118509285Y-55564285D01*
X118509285Y-54278571D01*
X119937857Y-54778571D02*
X119937857Y-55778571D01*
X119295000Y-54778571D02*
X119295000Y-55564285D01*
X119366428Y-55707142D01*
X119509285Y-55778571D01*
X119723571Y-55778571D01*
X119866428Y-55707142D01*
X119937857Y-55635714D01*
X120652142Y-55778571D02*
X120652142Y-54778571D01*
X120652142Y-54921428D02*
X120723571Y-54850000D01*
X120866428Y-54778571D01*
X121080714Y-54778571D01*
X121223571Y-54850000D01*
X121295000Y-54992857D01*
X121295000Y-55778571D01*
X121295000Y-54992857D02*
X121366428Y-54850000D01*
X121509285Y-54778571D01*
X121723571Y-54778571D01*
X121866428Y-54850000D01*
X121937857Y-54992857D01*
X121937857Y-55778571D01*
X122652142Y-54778571D02*
X122652142Y-55778571D01*
X122652142Y-54921428D02*
X122723571Y-54850000D01*
X122866428Y-54778571D01*
X123080714Y-54778571D01*
X123223571Y-54850000D01*
X123295000Y-54992857D01*
X123295000Y-55778571D01*
X123937857Y-55707142D02*
X124080714Y-55778571D01*
X124366428Y-55778571D01*
X124509285Y-55707142D01*
X124580714Y-55564285D01*
X124580714Y-55492857D01*
X124509285Y-55350000D01*
X124366428Y-55278571D01*
X124152142Y-55278571D01*
X124009285Y-55207142D01*
X123937857Y-55064285D01*
X123937857Y-54992857D01*
X124009285Y-54850000D01*
X124152142Y-54778571D01*
X124366428Y-54778571D01*
X124509285Y-54850000D01*
X173909285Y-57478571D02*
X173409285Y-56764285D01*
X173052142Y-57478571D02*
X173052142Y-55978571D01*
X173623571Y-55978571D01*
X173766428Y-56050000D01*
X173837857Y-56121428D01*
X173909285Y-56264285D01*
X173909285Y-56478571D01*
X173837857Y-56621428D01*
X173766428Y-56692857D01*
X173623571Y-56764285D01*
X173052142Y-56764285D01*
X174766428Y-57478571D02*
X174623571Y-57407142D01*
X174552142Y-57335714D01*
X174480714Y-57192857D01*
X174480714Y-56764285D01*
X174552142Y-56621428D01*
X174623571Y-56550000D01*
X174766428Y-56478571D01*
X174980714Y-56478571D01*
X175123571Y-56550000D01*
X175195000Y-56621428D01*
X175266428Y-56764285D01*
X175266428Y-57192857D01*
X175195000Y-57335714D01*
X175123571Y-57407142D01*
X174980714Y-57478571D01*
X174766428Y-57478571D01*
X175766428Y-56478571D02*
X176052142Y-57478571D01*
X176337857Y-56764285D01*
X176623571Y-57478571D01*
X176909285Y-56478571D01*
X177409285Y-57407142D02*
X177552142Y-57478571D01*
X177837857Y-57478571D01*
X177980714Y-57407142D01*
X178052142Y-57264285D01*
X178052142Y-57192857D01*
X177980714Y-57050000D01*
X177837857Y-56978571D01*
X177623571Y-56978571D01*
X177480714Y-56907142D01*
X177409285Y-56764285D01*
X177409285Y-56692857D01*
X177480714Y-56550000D01*
X177623571Y-56478571D01*
X177837857Y-56478571D01*
X177980714Y-56550000D01*
X130752142Y-81378571D02*
X130752142Y-79878571D01*
X131395000Y-81378571D02*
X131395000Y-80592857D01*
X131323571Y-80450000D01*
X131180714Y-80378571D01*
X130966428Y-80378571D01*
X130823571Y-80450000D01*
X130752142Y-80521428D01*
X131895000Y-80378571D02*
X132466428Y-80378571D01*
X132109285Y-79878571D02*
X132109285Y-81164285D01*
X132180714Y-81307142D01*
X132323571Y-81378571D01*
X132466428Y-81378571D01*
X132752142Y-80378571D02*
X133323571Y-80378571D01*
X132966428Y-79878571D02*
X132966428Y-81164285D01*
X133037857Y-81307142D01*
X133180714Y-81378571D01*
X133323571Y-81378571D01*
X133823571Y-80378571D02*
X133823571Y-81878571D01*
X133823571Y-80450000D02*
X133966428Y-80378571D01*
X134252142Y-80378571D01*
X134395000Y-80450000D01*
X134466428Y-80521428D01*
X134537857Y-80664285D01*
X134537857Y-81092857D01*
X134466428Y-81235714D01*
X134395000Y-81307142D01*
X134252142Y-81378571D01*
X133966428Y-81378571D01*
X133823571Y-81307142D01*
X135109285Y-81307142D02*
X135252142Y-81378571D01*
X135537857Y-81378571D01*
X135680714Y-81307142D01*
X135752142Y-81164285D01*
X135752142Y-81092857D01*
X135680714Y-80950000D01*
X135537857Y-80878571D01*
X135323571Y-80878571D01*
X135180714Y-80807142D01*
X135109285Y-80664285D01*
X135109285Y-80592857D01*
X135180714Y-80450000D01*
X135323571Y-80378571D01*
X135537857Y-80378571D01*
X135680714Y-80450000D01*
X136395000Y-81235714D02*
X136466428Y-81307142D01*
X136395000Y-81378571D01*
X136323571Y-81307142D01*
X136395000Y-81235714D01*
X136395000Y-81378571D01*
X136395000Y-80450000D02*
X136466428Y-80521428D01*
X136395000Y-80592857D01*
X136323571Y-80521428D01*
X136395000Y-80450000D01*
X136395000Y-80592857D01*
X138180714Y-79807142D02*
X136895000Y-81735714D01*
X139752142Y-79807142D02*
X138466428Y-81735714D01*
X140252142Y-81378571D02*
X140252142Y-80378571D01*
X140252142Y-80521428D02*
X140323571Y-80450000D01*
X140466428Y-80378571D01*
X140680714Y-80378571D01*
X140823571Y-80450000D01*
X140895000Y-80592857D01*
X140895000Y-81378571D01*
X140895000Y-80592857D02*
X140966428Y-80450000D01*
X141109285Y-80378571D01*
X141323571Y-80378571D01*
X141466428Y-80450000D01*
X141537857Y-80592857D01*
X141537857Y-81378571D01*
X142466428Y-81378571D02*
X142323571Y-81307142D01*
X142252142Y-81235714D01*
X142180714Y-81092857D01*
X142180714Y-80664285D01*
X142252142Y-80521428D01*
X142323571Y-80450000D01*
X142466428Y-80378571D01*
X142680714Y-80378571D01*
X142823571Y-80450000D01*
X142895000Y-80521428D01*
X142966428Y-80664285D01*
X142966428Y-81092857D01*
X142895000Y-81235714D01*
X142823571Y-81307142D01*
X142680714Y-81378571D01*
X142466428Y-81378571D01*
X144252142Y-81378571D02*
X144252142Y-79878571D01*
X144252142Y-81307142D02*
X144109285Y-81378571D01*
X143823571Y-81378571D01*
X143680714Y-81307142D01*
X143609285Y-81235714D01*
X143537857Y-81092857D01*
X143537857Y-80664285D01*
X143609285Y-80521428D01*
X143680714Y-80450000D01*
X143823571Y-80378571D01*
X144109285Y-80378571D01*
X144252142Y-80450000D01*
X145537857Y-81307142D02*
X145395000Y-81378571D01*
X145109285Y-81378571D01*
X144966428Y-81307142D01*
X144895000Y-81164285D01*
X144895000Y-80592857D01*
X144966428Y-80450000D01*
X145109285Y-80378571D01*
X145395000Y-80378571D01*
X145537857Y-80450000D01*
X145609285Y-80592857D01*
X145609285Y-80735714D01*
X144895000Y-80878571D01*
X146466428Y-81378571D02*
X146323571Y-81307142D01*
X146252142Y-81164285D01*
X146252142Y-79878571D01*
X147037857Y-81378571D02*
X147037857Y-79878571D01*
X147680714Y-81378571D02*
X147680714Y-80592857D01*
X147609285Y-80450000D01*
X147466428Y-80378571D01*
X147252142Y-80378571D01*
X147109285Y-80450000D01*
X147037857Y-80521428D01*
X148395000Y-81235714D02*
X148466428Y-81307142D01*
X148395000Y-81378571D01*
X148323571Y-81307142D01*
X148395000Y-81235714D01*
X148395000Y-81378571D01*
X149752142Y-81307142D02*
X149609285Y-81378571D01*
X149323571Y-81378571D01*
X149180714Y-81307142D01*
X149109285Y-81235714D01*
X149037857Y-81092857D01*
X149037857Y-80664285D01*
X149109285Y-80521428D01*
X149180714Y-80450000D01*
X149323571Y-80378571D01*
X149609285Y-80378571D01*
X149752142Y-80450000D01*
X150609285Y-81378571D02*
X150466428Y-81307142D01*
X150395000Y-81164285D01*
X150395000Y-79878571D01*
X151823571Y-80378571D02*
X151823571Y-81378571D01*
X151180714Y-80378571D02*
X151180714Y-81164285D01*
X151252142Y-81307142D01*
X151395000Y-81378571D01*
X151609285Y-81378571D01*
X151752142Y-81307142D01*
X151823571Y-81235714D01*
X152537857Y-81378571D02*
X152537857Y-79878571D01*
X152537857Y-80450000D02*
X152680714Y-80378571D01*
X152966428Y-80378571D01*
X153109285Y-80450000D01*
X153180714Y-80521428D01*
X153252142Y-80664285D01*
X153252142Y-81092857D01*
X153180714Y-81235714D01*
X153109285Y-81307142D01*
X152966428Y-81378571D01*
X152680714Y-81378571D01*
X152537857Y-81307142D01*
D10*
X171019047Y-77085714D02*
X171257142Y-77752380D01*
X171495238Y-77085714D01*
X172400000Y-77752380D02*
X171828571Y-77752380D01*
X172114285Y-77752380D02*
X172114285Y-76752380D01*
X172019047Y-76895238D01*
X171923809Y-76990476D01*
X171828571Y-77038095D01*
X172828571Y-77657142D02*
X172876190Y-77704761D01*
X172828571Y-77752380D01*
X172780952Y-77704761D01*
X172828571Y-77657142D01*
X172828571Y-77752380D01*
X173495238Y-76752380D02*
X173590476Y-76752380D01*
X173685714Y-76800000D01*
X173733333Y-76847619D01*
X173780952Y-76942857D01*
X173828571Y-77133333D01*
X173828571Y-77371428D01*
X173780952Y-77561904D01*
X173733333Y-77657142D01*
X173685714Y-77704761D01*
X173590476Y-77752380D01*
X173495238Y-77752380D01*
X173400000Y-77704761D01*
X173352380Y-77657142D01*
X173304761Y-77561904D01*
X173257142Y-77371428D01*
X173257142Y-77133333D01*
X173304761Y-76942857D01*
X173352380Y-76847619D01*
X173400000Y-76800000D01*
X173495238Y-76752380D01*
X174685714Y-77752380D02*
X174685714Y-77228571D01*
X174638095Y-77133333D01*
X174542857Y-77085714D01*
X174352380Y-77085714D01*
X174257142Y-77133333D01*
X174685714Y-77704761D02*
X174590476Y-77752380D01*
X174352380Y-77752380D01*
X174257142Y-77704761D01*
X174209523Y-77609523D01*
X174209523Y-77514285D01*
X174257142Y-77419047D01*
X174352380Y-77371428D01*
X174590476Y-77371428D01*
X174685714Y-77323809D01*
D12*
%TO.C,J5*%
X96940000Y-71670000D02*
X95610000Y-71670000D01*
X96940000Y-70340000D02*
X96940000Y-71670000D01*
X96940000Y-69070000D02*
X91740000Y-69070000D01*
X91740000Y-69070000D02*
X91740000Y-63930000D01*
X96940000Y-69070000D02*
X96940000Y-63930000D01*
X96940000Y-63930000D02*
X91740000Y-63930000D01*
%TO.C,G\u002A\u002A\u002A*%
G36*
X139429271Y-74716752D02*
G01*
X139485415Y-74404686D01*
X139487329Y-74397190D01*
X139642050Y-73945793D01*
X139856798Y-73553180D01*
X140128455Y-73221738D01*
X140453902Y-72953850D01*
X140830020Y-72751900D01*
X141253692Y-72618273D01*
X141721798Y-72555353D01*
X141902667Y-72550470D01*
X142378681Y-72588227D01*
X142814878Y-72699425D01*
X143207206Y-72880949D01*
X143551613Y-73129688D01*
X143844046Y-73442529D01*
X144080454Y-73816359D01*
X144256784Y-74248065D01*
X144297916Y-74390500D01*
X144342852Y-74632014D01*
X144369972Y-74928898D01*
X144379259Y-75253748D01*
X144370700Y-75579160D01*
X144344277Y-75877730D01*
X144299975Y-76122053D01*
X144298915Y-76126167D01*
X144153537Y-76543630D01*
X143947699Y-76922943D01*
X143689580Y-77253431D01*
X143387357Y-77524420D01*
X143088000Y-77706865D01*
X142700108Y-77853421D01*
X142271423Y-77939509D01*
X141822526Y-77962985D01*
X141373997Y-77921705D01*
X141251026Y-77898196D01*
X140828499Y-77767402D01*
X140454236Y-77567927D01*
X140130818Y-77302371D01*
X139860825Y-76973338D01*
X139646837Y-76583430D01*
X139491434Y-76135248D01*
X139487329Y-76119476D01*
X139430419Y-75809130D01*
X139401773Y-75450726D01*
X139401576Y-75257761D01*
X140988562Y-75257761D01*
X140989931Y-75571308D01*
X140994597Y-75871207D01*
X141002564Y-76143654D01*
X141013832Y-76374845D01*
X141028405Y-76550976D01*
X141046284Y-76658245D01*
X141049054Y-76666992D01*
X141172493Y-76898746D01*
X141355291Y-77084216D01*
X141498748Y-77171109D01*
X141705148Y-77230011D01*
X141943752Y-77240013D01*
X142180781Y-77203458D01*
X142382457Y-77122684D01*
X142405492Y-77108282D01*
X142554386Y-76971549D01*
X142670121Y-76795710D01*
X142699038Y-76734291D01*
X142721926Y-76673814D01*
X142739616Y-76603703D01*
X142752937Y-76513382D01*
X142762720Y-76392273D01*
X142769793Y-76229801D01*
X142774988Y-76015389D01*
X142779134Y-75738461D01*
X142783060Y-75388440D01*
X142783448Y-75351384D01*
X142786546Y-74938772D01*
X142785476Y-74601212D01*
X142778883Y-74329134D01*
X142765413Y-74112968D01*
X142743711Y-73943145D01*
X142712424Y-73810098D01*
X142670196Y-73704255D01*
X142615674Y-73616050D01*
X142547504Y-73535911D01*
X142522963Y-73510786D01*
X142322794Y-73364694D01*
X142094660Y-73285798D01*
X141854297Y-73270338D01*
X141617436Y-73314556D01*
X141399813Y-73414692D01*
X141217160Y-73566985D01*
X141085211Y-73767678D01*
X141049485Y-73862868D01*
X141031111Y-73968428D01*
X141016023Y-74143162D01*
X141004222Y-74373266D01*
X140995710Y-74644936D01*
X140990489Y-74944369D01*
X140988562Y-75257761D01*
X139401576Y-75257761D01*
X139401390Y-75076016D01*
X139429271Y-74716752D01*
G37*
D13*
X139429271Y-74716752D02*
X139485415Y-74404686D01*
X139487329Y-74397190D01*
X139642050Y-73945793D01*
X139856798Y-73553180D01*
X140128455Y-73221738D01*
X140453902Y-72953850D01*
X140830020Y-72751900D01*
X141253692Y-72618273D01*
X141721798Y-72555353D01*
X141902667Y-72550470D01*
X142378681Y-72588227D01*
X142814878Y-72699425D01*
X143207206Y-72880949D01*
X143551613Y-73129688D01*
X143844046Y-73442529D01*
X144080454Y-73816359D01*
X144256784Y-74248065D01*
X144297916Y-74390500D01*
X144342852Y-74632014D01*
X144369972Y-74928898D01*
X144379259Y-75253748D01*
X144370700Y-75579160D01*
X144344277Y-75877730D01*
X144299975Y-76122053D01*
X144298915Y-76126167D01*
X144153537Y-76543630D01*
X143947699Y-76922943D01*
X143689580Y-77253431D01*
X143387357Y-77524420D01*
X143088000Y-77706865D01*
X142700108Y-77853421D01*
X142271423Y-77939509D01*
X141822526Y-77962985D01*
X141373997Y-77921705D01*
X141251026Y-77898196D01*
X140828499Y-77767402D01*
X140454236Y-77567927D01*
X140130818Y-77302371D01*
X139860825Y-76973338D01*
X139646837Y-76583430D01*
X139491434Y-76135248D01*
X139487329Y-76119476D01*
X139430419Y-75809130D01*
X139401773Y-75450726D01*
X139401576Y-75257761D01*
X140988562Y-75257761D01*
X140989931Y-75571308D01*
X140994597Y-75871207D01*
X141002564Y-76143654D01*
X141013832Y-76374845D01*
X141028405Y-76550976D01*
X141046284Y-76658245D01*
X141049054Y-76666992D01*
X141172493Y-76898746D01*
X141355291Y-77084216D01*
X141498748Y-77171109D01*
X141705148Y-77230011D01*
X141943752Y-77240013D01*
X142180781Y-77203458D01*
X142382457Y-77122684D01*
X142405492Y-77108282D01*
X142554386Y-76971549D01*
X142670121Y-76795710D01*
X142699038Y-76734291D01*
X142721926Y-76673814D01*
X142739616Y-76603703D01*
X142752937Y-76513382D01*
X142762720Y-76392273D01*
X142769793Y-76229801D01*
X142774988Y-76015389D01*
X142779134Y-75738461D01*
X142783060Y-75388440D01*
X142783448Y-75351384D01*
X142786546Y-74938772D01*
X142785476Y-74601212D01*
X142778883Y-74329134D01*
X142765413Y-74112968D01*
X142743711Y-73943145D01*
X142712424Y-73810098D01*
X142670196Y-73704255D01*
X142615674Y-73616050D01*
X142547504Y-73535911D01*
X142522963Y-73510786D01*
X142322794Y-73364694D01*
X142094660Y-73285798D01*
X141854297Y-73270338D01*
X141617436Y-73314556D01*
X141399813Y-73414692D01*
X141217160Y-73566985D01*
X141085211Y-73767678D01*
X141049485Y-73862868D01*
X141031111Y-73968428D01*
X141016023Y-74143162D01*
X141004222Y-74373266D01*
X140995710Y-74644936D01*
X140990489Y-74944369D01*
X140988562Y-75257761D01*
X139401576Y-75257761D01*
X139401390Y-75076016D01*
X139429271Y-74716752D01*
G36*
X145350917Y-74449496D02*
G01*
X145478080Y-73983235D01*
X145658617Y-73575189D01*
X145890245Y-73229314D01*
X146170678Y-72949567D01*
X146253312Y-72886711D01*
X146480659Y-72742887D01*
X146703700Y-72647458D01*
X146948356Y-72592905D01*
X147240551Y-72571706D01*
X147342500Y-72570728D01*
X147551852Y-72573957D01*
X147703404Y-72585990D01*
X147823911Y-72611329D01*
X147940131Y-72654476D01*
X147998667Y-72681141D01*
X148188032Y-72793033D01*
X148371180Y-72940066D01*
X148525147Y-73100875D01*
X148626972Y-73254093D01*
X148635922Y-73274112D01*
X148681812Y-73359128D01*
X148722692Y-73395641D01*
X148723469Y-73395667D01*
X148734079Y-73355310D01*
X148743511Y-73242143D01*
X148751308Y-73068019D01*
X148757016Y-72844791D01*
X148760178Y-72584312D01*
X148760667Y-72427896D01*
X148760667Y-71460125D01*
X148189167Y-71338261D01*
X148189167Y-70755285D01*
X149184000Y-70552700D01*
X149465025Y-70495858D01*
X149719714Y-70445073D01*
X149935916Y-70402710D01*
X150101480Y-70371132D01*
X150204255Y-70352703D01*
X150231750Y-70348891D01*
X150241911Y-70364572D01*
X150250772Y-70415242D01*
X150258408Y-70505590D01*
X150264896Y-70640304D01*
X150270313Y-70824073D01*
X150274734Y-71061586D01*
X150278235Y-71357532D01*
X150280894Y-71716598D01*
X150282787Y-72143474D01*
X150283989Y-72642849D01*
X150284577Y-73219411D01*
X150284667Y-73600975D01*
X150284667Y-76854284D01*
X150570417Y-76913559D01*
X150856167Y-76972833D01*
X150868569Y-77253537D01*
X150873540Y-77403648D01*
X150866988Y-77490211D01*
X150841754Y-77534231D01*
X150790678Y-77556714D01*
X150762736Y-77564048D01*
X150696931Y-77578691D01*
X150566079Y-77606300D01*
X150384284Y-77644012D01*
X150165650Y-77688962D01*
X149924282Y-77738285D01*
X149674283Y-77789117D01*
X149429757Y-77838594D01*
X149204808Y-77883851D01*
X149013541Y-77922024D01*
X148870060Y-77950248D01*
X148788467Y-77965660D01*
X148775343Y-77967667D01*
X148769505Y-77928222D01*
X148762825Y-77821410D01*
X148756208Y-77664510D01*
X148751515Y-77512583D01*
X148739500Y-77057500D01*
X148647837Y-77226833D01*
X148530923Y-77395368D01*
X148368141Y-77570260D01*
X148189638Y-77720586D01*
X148122385Y-77765806D01*
X147876905Y-77875647D01*
X147582539Y-77941227D01*
X147264072Y-77960009D01*
X146946290Y-77929456D01*
X146813333Y-77899800D01*
X146466709Y-77764112D01*
X146154495Y-77554387D01*
X145881299Y-77275834D01*
X145651730Y-76933664D01*
X145470395Y-76533087D01*
X145394478Y-76295500D01*
X145350872Y-76079197D01*
X145319548Y-75803316D01*
X145301077Y-75492131D01*
X145296033Y-75169918D01*
X145304989Y-74860952D01*
X145310225Y-74800534D01*
X146902291Y-74800534D01*
X146903606Y-75126182D01*
X146905837Y-75324547D01*
X146910404Y-75653451D01*
X146915430Y-75909164D01*
X146921895Y-76103161D01*
X146930775Y-76246916D01*
X146943051Y-76351904D01*
X146959699Y-76429598D01*
X146981700Y-76491474D01*
X147010030Y-76549005D01*
X147010297Y-76549500D01*
X147166497Y-76773002D01*
X147360072Y-76924978D01*
X147599781Y-77010463D01*
X147854425Y-77034676D01*
X148062959Y-77020528D01*
X148235258Y-76968652D01*
X148298925Y-76937796D01*
X148494595Y-76787831D01*
X148612500Y-76634340D01*
X148739500Y-76429420D01*
X148752838Y-75369194D01*
X148756193Y-74989850D01*
X148754826Y-74684359D01*
X148747438Y-74441976D01*
X148732731Y-74251955D01*
X148709406Y-74103552D01*
X148676164Y-73986022D01*
X148631705Y-73888620D01*
X148574732Y-73800601D01*
X148560992Y-73782219D01*
X148389896Y-73623218D01*
X148174199Y-73520637D01*
X147932536Y-73474594D01*
X147683541Y-73485209D01*
X147445851Y-73552600D01*
X147238098Y-73676886D01*
X147140298Y-73773138D01*
X147067806Y-73865176D01*
X147011003Y-73956547D01*
X146968173Y-74058598D01*
X146937601Y-74182676D01*
X146917573Y-74340127D01*
X146906375Y-74542297D01*
X146902291Y-74800534D01*
X145310225Y-74800534D01*
X145328517Y-74589508D01*
X145350917Y-74449496D01*
G37*
X145350917Y-74449496D02*
X145478080Y-73983235D01*
X145658617Y-73575189D01*
X145890245Y-73229314D01*
X146170678Y-72949567D01*
X146253312Y-72886711D01*
X146480659Y-72742887D01*
X146703700Y-72647458D01*
X146948356Y-72592905D01*
X147240551Y-72571706D01*
X147342500Y-72570728D01*
X147551852Y-72573957D01*
X147703404Y-72585990D01*
X147823911Y-72611329D01*
X147940131Y-72654476D01*
X147998667Y-72681141D01*
X148188032Y-72793033D01*
X148371180Y-72940066D01*
X148525147Y-73100875D01*
X148626972Y-73254093D01*
X148635922Y-73274112D01*
X148681812Y-73359128D01*
X148722692Y-73395641D01*
X148723469Y-73395667D01*
X148734079Y-73355310D01*
X148743511Y-73242143D01*
X148751308Y-73068019D01*
X148757016Y-72844791D01*
X148760178Y-72584312D01*
X148760667Y-72427896D01*
X148760667Y-71460125D01*
X148189167Y-71338261D01*
X148189167Y-70755285D01*
X149184000Y-70552700D01*
X149465025Y-70495858D01*
X149719714Y-70445073D01*
X149935916Y-70402710D01*
X150101480Y-70371132D01*
X150204255Y-70352703D01*
X150231750Y-70348891D01*
X150241911Y-70364572D01*
X150250772Y-70415242D01*
X150258408Y-70505590D01*
X150264896Y-70640304D01*
X150270313Y-70824073D01*
X150274734Y-71061586D01*
X150278235Y-71357532D01*
X150280894Y-71716598D01*
X150282787Y-72143474D01*
X150283989Y-72642849D01*
X150284577Y-73219411D01*
X150284667Y-73600975D01*
X150284667Y-76854284D01*
X150570417Y-76913559D01*
X150856167Y-76972833D01*
X150868569Y-77253537D01*
X150873540Y-77403648D01*
X150866988Y-77490211D01*
X150841754Y-77534231D01*
X150790678Y-77556714D01*
X150762736Y-77564048D01*
X150696931Y-77578691D01*
X150566079Y-77606300D01*
X150384284Y-77644012D01*
X150165650Y-77688962D01*
X149924282Y-77738285D01*
X149674283Y-77789117D01*
X149429757Y-77838594D01*
X149204808Y-77883851D01*
X149013541Y-77922024D01*
X148870060Y-77950248D01*
X148788467Y-77965660D01*
X148775343Y-77967667D01*
X148769505Y-77928222D01*
X148762825Y-77821410D01*
X148756208Y-77664510D01*
X148751515Y-77512583D01*
X148739500Y-77057500D01*
X148647837Y-77226833D01*
X148530923Y-77395368D01*
X148368141Y-77570260D01*
X148189638Y-77720586D01*
X148122385Y-77765806D01*
X147876905Y-77875647D01*
X147582539Y-77941227D01*
X147264072Y-77960009D01*
X146946290Y-77929456D01*
X146813333Y-77899800D01*
X146466709Y-77764112D01*
X146154495Y-77554387D01*
X145881299Y-77275834D01*
X145651730Y-76933664D01*
X145470395Y-76533087D01*
X145394478Y-76295500D01*
X145350872Y-76079197D01*
X145319548Y-75803316D01*
X145301077Y-75492131D01*
X145296033Y-75169918D01*
X145304989Y-74860952D01*
X145310225Y-74800534D01*
X146902291Y-74800534D01*
X146903606Y-75126182D01*
X146905837Y-75324547D01*
X146910404Y-75653451D01*
X146915430Y-75909164D01*
X146921895Y-76103161D01*
X146930775Y-76246916D01*
X146943051Y-76351904D01*
X146959699Y-76429598D01*
X146981700Y-76491474D01*
X147010030Y-76549005D01*
X147010297Y-76549500D01*
X147166497Y-76773002D01*
X147360072Y-76924978D01*
X147599781Y-77010463D01*
X147854425Y-77034676D01*
X148062959Y-77020528D01*
X148235258Y-76968652D01*
X148298925Y-76937796D01*
X148494595Y-76787831D01*
X148612500Y-76634340D01*
X148739500Y-76429420D01*
X148752838Y-75369194D01*
X148756193Y-74989850D01*
X148754826Y-74684359D01*
X148747438Y-74441976D01*
X148732731Y-74251955D01*
X148709406Y-74103552D01*
X148676164Y-73986022D01*
X148631705Y-73888620D01*
X148574732Y-73800601D01*
X148560992Y-73782219D01*
X148389896Y-73623218D01*
X148174199Y-73520637D01*
X147932536Y-73474594D01*
X147683541Y-73485209D01*
X147445851Y-73552600D01*
X147238098Y-73676886D01*
X147140298Y-73773138D01*
X147067806Y-73865176D01*
X147011003Y-73956547D01*
X146968173Y-74058598D01*
X146937601Y-74182676D01*
X146917573Y-74340127D01*
X146906375Y-74542297D01*
X146902291Y-74800534D01*
X145310225Y-74800534D01*
X145328517Y-74589508D01*
X145350917Y-74449496D01*
G36*
X151596263Y-74393379D02*
G01*
X151748398Y-73945438D01*
X151959623Y-73553870D01*
X152226636Y-73222021D01*
X152546135Y-72953237D01*
X152914815Y-72750865D01*
X153329373Y-72618249D01*
X153353833Y-72612962D01*
X153807472Y-72553515D01*
X154253954Y-72564414D01*
X154681630Y-72642712D01*
X155078848Y-72785466D01*
X155433958Y-72989730D01*
X155687277Y-73202778D01*
X155955578Y-73529301D01*
X156153106Y-73902189D01*
X156279767Y-74321193D01*
X156335466Y-74786063D01*
X156338333Y-74926438D01*
X156338333Y-75300667D01*
X153067023Y-75300667D01*
X153095674Y-75671083D01*
X153129490Y-75973448D01*
X153182866Y-76211146D01*
X153262838Y-76403247D01*
X153376439Y-76568817D01*
X153460563Y-76660262D01*
X153693846Y-76836713D01*
X153965818Y-76949107D01*
X154261675Y-76999012D01*
X154566612Y-76987997D01*
X154865827Y-76917632D01*
X155144514Y-76789486D01*
X155387869Y-76605129D01*
X155531233Y-76440768D01*
X155606757Y-76331679D01*
X155659241Y-76246938D01*
X155671602Y-76221360D01*
X155710935Y-76218615D01*
X155797921Y-76252796D01*
X155911367Y-76311548D01*
X156030082Y-76382514D01*
X156132873Y-76453338D01*
X156198548Y-76511663D01*
X156211333Y-76536056D01*
X156192611Y-76593946D01*
X156143784Y-76701430D01*
X156082865Y-76821013D01*
X155863053Y-77147294D01*
X155578262Y-77433842D01*
X155243757Y-77667935D01*
X154874800Y-77836850D01*
X154856667Y-77843040D01*
X154612904Y-77902511D01*
X154317078Y-77940514D01*
X153999338Y-77955805D01*
X153689836Y-77947142D01*
X153418723Y-77913282D01*
X153375000Y-77904115D01*
X152962112Y-77768647D01*
X152588130Y-77561663D01*
X152259444Y-77289822D01*
X151982439Y-76959781D01*
X151763504Y-76578198D01*
X151609025Y-76151729D01*
X151579946Y-76033143D01*
X151534963Y-75744353D01*
X151513342Y-75409922D01*
X151514780Y-75060336D01*
X151538973Y-74726080D01*
X151570335Y-74532149D01*
X153095055Y-74532149D01*
X153097999Y-74614202D01*
X153101559Y-74626125D01*
X153150059Y-74638728D01*
X153270920Y-74649553D01*
X153451846Y-74658031D01*
X153680540Y-74663592D01*
X153944705Y-74665664D01*
X153954176Y-74665667D01*
X154782356Y-74665667D01*
X154764335Y-74295250D01*
X154723994Y-73949741D01*
X154639273Y-73675489D01*
X154508918Y-73470890D01*
X154331676Y-73334342D01*
X154106294Y-73264240D01*
X153949827Y-73253399D01*
X153703602Y-73277105D01*
X153507285Y-73351178D01*
X153355443Y-73481986D01*
X153242640Y-73675896D01*
X153163444Y-73939275D01*
X153117827Y-74228343D01*
X153101967Y-74396141D01*
X153095055Y-74532149D01*
X151570335Y-74532149D01*
X151585619Y-74437639D01*
X151596263Y-74393379D01*
G37*
X151596263Y-74393379D02*
X151748398Y-73945438D01*
X151959623Y-73553870D01*
X152226636Y-73222021D01*
X152546135Y-72953237D01*
X152914815Y-72750865D01*
X153329373Y-72618249D01*
X153353833Y-72612962D01*
X153807472Y-72553515D01*
X154253954Y-72564414D01*
X154681630Y-72642712D01*
X155078848Y-72785466D01*
X155433958Y-72989730D01*
X155687277Y-73202778D01*
X155955578Y-73529301D01*
X156153106Y-73902189D01*
X156279767Y-74321193D01*
X156335466Y-74786063D01*
X156338333Y-74926438D01*
X156338333Y-75300667D01*
X153067023Y-75300667D01*
X153095674Y-75671083D01*
X153129490Y-75973448D01*
X153182866Y-76211146D01*
X153262838Y-76403247D01*
X153376439Y-76568817D01*
X153460563Y-76660262D01*
X153693846Y-76836713D01*
X153965818Y-76949107D01*
X154261675Y-76999012D01*
X154566612Y-76987997D01*
X154865827Y-76917632D01*
X155144514Y-76789486D01*
X155387869Y-76605129D01*
X155531233Y-76440768D01*
X155606757Y-76331679D01*
X155659241Y-76246938D01*
X155671602Y-76221360D01*
X155710935Y-76218615D01*
X155797921Y-76252796D01*
X155911367Y-76311548D01*
X156030082Y-76382514D01*
X156132873Y-76453338D01*
X156198548Y-76511663D01*
X156211333Y-76536056D01*
X156192611Y-76593946D01*
X156143784Y-76701430D01*
X156082865Y-76821013D01*
X155863053Y-77147294D01*
X155578262Y-77433842D01*
X155243757Y-77667935D01*
X154874800Y-77836850D01*
X154856667Y-77843040D01*
X154612904Y-77902511D01*
X154317078Y-77940514D01*
X153999338Y-77955805D01*
X153689836Y-77947142D01*
X153418723Y-77913282D01*
X153375000Y-77904115D01*
X152962112Y-77768647D01*
X152588130Y-77561663D01*
X152259444Y-77289822D01*
X151982439Y-76959781D01*
X151763504Y-76578198D01*
X151609025Y-76151729D01*
X151579946Y-76033143D01*
X151534963Y-75744353D01*
X151513342Y-75409922D01*
X151514780Y-75060336D01*
X151538973Y-74726080D01*
X151570335Y-74532149D01*
X153095055Y-74532149D01*
X153097999Y-74614202D01*
X153101559Y-74626125D01*
X153150059Y-74638728D01*
X153270920Y-74649553D01*
X153451846Y-74658031D01*
X153680540Y-74663592D01*
X153944705Y-74665664D01*
X153954176Y-74665667D01*
X154782356Y-74665667D01*
X154764335Y-74295250D01*
X154723994Y-73949741D01*
X154639273Y-73675489D01*
X154508918Y-73470890D01*
X154331676Y-73334342D01*
X154106294Y-73264240D01*
X153949827Y-73253399D01*
X153703602Y-73277105D01*
X153507285Y-73351178D01*
X153355443Y-73481986D01*
X153242640Y-73675896D01*
X153163444Y-73939275D01*
X153117827Y-74228343D01*
X153101967Y-74396141D01*
X153095055Y-74532149D01*
X151570335Y-74532149D01*
X151585619Y-74437639D01*
X151596263Y-74393379D01*
G36*
X133670367Y-72284416D02*
G01*
X133823886Y-72614104D01*
X133972263Y-72933090D01*
X134110120Y-73229784D01*
X134232075Y-73492595D01*
X134332749Y-73709931D01*
X134406763Y-73870201D01*
X134439708Y-73941967D01*
X134516004Y-74095170D01*
X134577436Y-74191061D01*
X134617280Y-74219460D01*
X134621383Y-74216883D01*
X134643404Y-74173939D01*
X134694946Y-74063298D01*
X134771633Y-73894851D01*
X134869088Y-73678485D01*
X134982934Y-73424088D01*
X135108793Y-73141549D01*
X135242289Y-72840756D01*
X135379045Y-72531599D01*
X135514683Y-72223964D01*
X135644827Y-71927742D01*
X135765099Y-71652819D01*
X135871123Y-71409085D01*
X135958521Y-71206428D01*
X136022916Y-71054736D01*
X136048306Y-70993250D01*
X136074270Y-70977342D01*
X136142642Y-70964707D01*
X136260561Y-70955050D01*
X136435167Y-70948079D01*
X136673598Y-70943499D01*
X136982996Y-70941016D01*
X137335196Y-70940333D01*
X138600667Y-70940333D01*
X138600667Y-71617667D01*
X137923333Y-71617667D01*
X137923333Y-77205667D01*
X138600667Y-77205667D01*
X138600667Y-77840667D01*
X135595000Y-77840667D01*
X135595000Y-77209091D01*
X135944250Y-77196795D01*
X136293500Y-77184500D01*
X136304419Y-74676250D01*
X136305861Y-74224157D01*
X136306201Y-73798252D01*
X136305500Y-73405897D01*
X136303820Y-73054452D01*
X136301224Y-72751278D01*
X136297774Y-72503738D01*
X136293531Y-72319192D01*
X136288559Y-72205001D01*
X136283252Y-72168389D01*
X136258086Y-72205926D01*
X136208168Y-72309809D01*
X136139091Y-72467344D01*
X136056452Y-72665834D01*
X135980102Y-72856306D01*
X135906011Y-73037129D01*
X135807825Y-73265960D01*
X135689553Y-73534284D01*
X135555202Y-73833586D01*
X135408780Y-74155351D01*
X135254294Y-74491064D01*
X135095753Y-74832211D01*
X134937163Y-75170277D01*
X134782532Y-75496747D01*
X134635868Y-75803105D01*
X134501179Y-76080838D01*
X134382473Y-76321429D01*
X134283756Y-76516366D01*
X134209036Y-76657132D01*
X134162322Y-76735212D01*
X134148419Y-76747999D01*
X134118189Y-76697071D01*
X134057331Y-76578096D01*
X133970068Y-76400186D01*
X133860625Y-76172455D01*
X133733224Y-75904016D01*
X133592090Y-75603982D01*
X133441446Y-75281467D01*
X133285515Y-74945584D01*
X133128522Y-74605445D01*
X132974690Y-74270165D01*
X132828242Y-73948856D01*
X132693402Y-73650631D01*
X132574393Y-73384605D01*
X132475440Y-73159890D01*
X132400766Y-72985599D01*
X132370334Y-72911432D01*
X132281774Y-72691314D01*
X132201862Y-72495967D01*
X132136795Y-72340287D01*
X132092769Y-72239171D01*
X132078709Y-72210333D01*
X132071499Y-72238982D01*
X132064815Y-72346563D01*
X132058746Y-72527346D01*
X132053382Y-72775599D01*
X132048813Y-73085588D01*
X132045127Y-73451581D01*
X132042414Y-73867848D01*
X132040764Y-74328655D01*
X132040287Y-74676250D01*
X132039000Y-77205667D01*
X132716333Y-77205667D01*
X132716333Y-77840667D01*
X130557333Y-77840667D01*
X130557333Y-77205667D01*
X131234667Y-77205667D01*
X131234667Y-71617667D01*
X130557333Y-71617667D01*
X130557333Y-70940333D01*
X133044151Y-70940333D01*
X133670367Y-72284416D01*
G37*
X133670367Y-72284416D02*
X133823886Y-72614104D01*
X133972263Y-72933090D01*
X134110120Y-73229784D01*
X134232075Y-73492595D01*
X134332749Y-73709931D01*
X134406763Y-73870201D01*
X134439708Y-73941967D01*
X134516004Y-74095170D01*
X134577436Y-74191061D01*
X134617280Y-74219460D01*
X134621383Y-74216883D01*
X134643404Y-74173939D01*
X134694946Y-74063298D01*
X134771633Y-73894851D01*
X134869088Y-73678485D01*
X134982934Y-73424088D01*
X135108793Y-73141549D01*
X135242289Y-72840756D01*
X135379045Y-72531599D01*
X135514683Y-72223964D01*
X135644827Y-71927742D01*
X135765099Y-71652819D01*
X135871123Y-71409085D01*
X135958521Y-71206428D01*
X136022916Y-71054736D01*
X136048306Y-70993250D01*
X136074270Y-70977342D01*
X136142642Y-70964707D01*
X136260561Y-70955050D01*
X136435167Y-70948079D01*
X136673598Y-70943499D01*
X136982996Y-70941016D01*
X137335196Y-70940333D01*
X138600667Y-70940333D01*
X138600667Y-71617667D01*
X137923333Y-71617667D01*
X137923333Y-77205667D01*
X138600667Y-77205667D01*
X138600667Y-77840667D01*
X135595000Y-77840667D01*
X135595000Y-77209091D01*
X135944250Y-77196795D01*
X136293500Y-77184500D01*
X136304419Y-74676250D01*
X136305861Y-74224157D01*
X136306201Y-73798252D01*
X136305500Y-73405897D01*
X136303820Y-73054452D01*
X136301224Y-72751278D01*
X136297774Y-72503738D01*
X136293531Y-72319192D01*
X136288559Y-72205001D01*
X136283252Y-72168389D01*
X136258086Y-72205926D01*
X136208168Y-72309809D01*
X136139091Y-72467344D01*
X136056452Y-72665834D01*
X135980102Y-72856306D01*
X135906011Y-73037129D01*
X135807825Y-73265960D01*
X135689553Y-73534284D01*
X135555202Y-73833586D01*
X135408780Y-74155351D01*
X135254294Y-74491064D01*
X135095753Y-74832211D01*
X134937163Y-75170277D01*
X134782532Y-75496747D01*
X134635868Y-75803105D01*
X134501179Y-76080838D01*
X134382473Y-76321429D01*
X134283756Y-76516366D01*
X134209036Y-76657132D01*
X134162322Y-76735212D01*
X134148419Y-76747999D01*
X134118189Y-76697071D01*
X134057331Y-76578096D01*
X133970068Y-76400186D01*
X133860625Y-76172455D01*
X133733224Y-75904016D01*
X133592090Y-75603982D01*
X133441446Y-75281467D01*
X133285515Y-74945584D01*
X133128522Y-74605445D01*
X132974690Y-74270165D01*
X132828242Y-73948856D01*
X132693402Y-73650631D01*
X132574393Y-73384605D01*
X132475440Y-73159890D01*
X132400766Y-72985599D01*
X132370334Y-72911432D01*
X132281774Y-72691314D01*
X132201862Y-72495967D01*
X132136795Y-72340287D01*
X132092769Y-72239171D01*
X132078709Y-72210333D01*
X132071499Y-72238982D01*
X132064815Y-72346563D01*
X132058746Y-72527346D01*
X132053382Y-72775599D01*
X132048813Y-73085588D01*
X132045127Y-73451581D01*
X132042414Y-73867848D01*
X132040764Y-74328655D01*
X132040287Y-74676250D01*
X132039000Y-77205667D01*
X132716333Y-77205667D01*
X132716333Y-77840667D01*
X130557333Y-77840667D01*
X130557333Y-77205667D01*
X131234667Y-77205667D01*
X131234667Y-71617667D01*
X130557333Y-71617667D01*
X130557333Y-70940333D01*
X133044151Y-70940333D01*
X133670367Y-72284416D01*
G36*
X159046994Y-70365149D02*
G01*
X159055670Y-70415343D01*
X159063181Y-70504860D01*
X159069597Y-70638273D01*
X159074989Y-70820154D01*
X159079428Y-71055076D01*
X159082984Y-71347612D01*
X159085729Y-71702335D01*
X159087732Y-72123817D01*
X159089064Y-72616631D01*
X159089796Y-73185350D01*
X159090000Y-73776667D01*
X159090000Y-77205667D01*
X159682667Y-77205667D01*
X159682667Y-77840667D01*
X156973333Y-77840667D01*
X156973333Y-77205667D01*
X157566000Y-77205667D01*
X157566000Y-71454336D01*
X157322583Y-71406501D01*
X157151622Y-71372457D01*
X157047381Y-71341432D01*
X156994279Y-71296569D01*
X156976736Y-71221012D01*
X156979171Y-71097904D01*
X156981969Y-71037992D01*
X156994500Y-70753488D01*
X157989333Y-70552615D01*
X158270409Y-70496209D01*
X158525137Y-70445753D01*
X158741359Y-70403601D01*
X158906916Y-70372107D01*
X159009652Y-70353627D01*
X159037083Y-70349704D01*
X159046994Y-70365149D01*
G37*
X159046994Y-70365149D02*
X159055670Y-70415343D01*
X159063181Y-70504860D01*
X159069597Y-70638273D01*
X159074989Y-70820154D01*
X159079428Y-71055076D01*
X159082984Y-71347612D01*
X159085729Y-71702335D01*
X159087732Y-72123817D01*
X159089064Y-72616631D01*
X159089796Y-73185350D01*
X159090000Y-73776667D01*
X159090000Y-77205667D01*
X159682667Y-77205667D01*
X159682667Y-77840667D01*
X156973333Y-77840667D01*
X156973333Y-77205667D01*
X157566000Y-77205667D01*
X157566000Y-71454336D01*
X157322583Y-71406501D01*
X157151622Y-71372457D01*
X157047381Y-71341432D01*
X156994279Y-71296569D01*
X156976736Y-71221012D01*
X156979171Y-71097904D01*
X156981969Y-71037992D01*
X156994500Y-70753488D01*
X157989333Y-70552615D01*
X158270409Y-70496209D01*
X158525137Y-70445753D01*
X158741359Y-70403601D01*
X158906916Y-70372107D01*
X159009652Y-70353627D01*
X159037083Y-70349704D01*
X159046994Y-70365149D01*
G36*
X165651667Y-71617667D02*
G01*
X164974333Y-71617667D01*
X164974333Y-73946000D01*
X167556667Y-73946000D01*
X167556667Y-71617667D01*
X166879333Y-71617667D01*
X166879333Y-70940333D01*
X169885000Y-70940333D01*
X169885000Y-71617667D01*
X169207667Y-71617667D01*
X169207667Y-77205667D01*
X169885000Y-77205667D01*
X169885000Y-77840667D01*
X166879333Y-77840667D01*
X166879333Y-77205667D01*
X167556667Y-77205667D01*
X167556667Y-74665667D01*
X164974333Y-74665667D01*
X164974333Y-77205667D01*
X165651667Y-77205667D01*
X165651667Y-77840667D01*
X162646000Y-77840667D01*
X162646000Y-77205667D01*
X163323333Y-77205667D01*
X163323333Y-71617667D01*
X162646000Y-71617667D01*
X162646000Y-70940333D01*
X165651667Y-70940333D01*
X165651667Y-71617667D01*
G37*
X165651667Y-71617667D02*
X164974333Y-71617667D01*
X164974333Y-73946000D01*
X167556667Y-73946000D01*
X167556667Y-71617667D01*
X166879333Y-71617667D01*
X166879333Y-70940333D01*
X169885000Y-70940333D01*
X169885000Y-71617667D01*
X169207667Y-71617667D01*
X169207667Y-77205667D01*
X169885000Y-77205667D01*
X169885000Y-77840667D01*
X166879333Y-77840667D01*
X166879333Y-77205667D01*
X167556667Y-77205667D01*
X167556667Y-74665667D01*
X164974333Y-74665667D01*
X164974333Y-77205667D01*
X165651667Y-77205667D01*
X165651667Y-77840667D01*
X162646000Y-77840667D01*
X162646000Y-77205667D01*
X163323333Y-77205667D01*
X163323333Y-71617667D01*
X162646000Y-71617667D01*
X162646000Y-70940333D01*
X165651667Y-70940333D01*
X165651667Y-71617667D01*
D12*
%TO.C,J4*%
X207250000Y-60920000D02*
X206250000Y-60920000D01*
X207250000Y-62420000D02*
X207250000Y-60920000D01*
X207250000Y-53300000D02*
X206250000Y-53300000D01*
X207250000Y-51800000D02*
X207250000Y-53300000D01*
X207250000Y-51800000D02*
X210250000Y-51800000D01*
X206250000Y-60920000D02*
X206250000Y-53300000D01*
X210250000Y-62420000D02*
X207250000Y-62420000D01*
X210250000Y-51800000D02*
X210250000Y-62420000D01*
%TO.C,J3*%
X191610000Y-52100000D02*
X191610000Y-51100000D01*
X193110000Y-52100000D02*
X191610000Y-52100000D01*
X193110000Y-55100000D02*
X193110000Y-52100000D01*
X202020000Y-52100000D02*
X203520000Y-52100000D01*
X202020000Y-51100000D02*
X202020000Y-52100000D01*
X174080000Y-52100000D02*
X174080000Y-51100000D01*
X172580000Y-52100000D02*
X174080000Y-52100000D01*
X172580000Y-55100000D02*
X172580000Y-52100000D01*
X203520000Y-55100000D02*
X172580000Y-55100000D01*
X203520000Y-52100000D02*
X203520000Y-55100000D01*
X174080000Y-51100000D02*
X202020000Y-51100000D01*
%TO.C,J2*%
X116700000Y-52600000D02*
X116700000Y-53600000D01*
X115200000Y-52600000D02*
X116700000Y-52600000D01*
X154800000Y-52600000D02*
X154800000Y-53600000D01*
X156300000Y-52600000D02*
X154800000Y-52600000D01*
X115200000Y-52600000D02*
X115200000Y-49600000D01*
X154800000Y-53600000D02*
X116700000Y-53600000D01*
X156300000Y-49600000D02*
X156300000Y-52600000D01*
X115200000Y-49600000D02*
X156300000Y-49600000D01*
%TO.C,U1*%
X108588198Y-67777113D02*
X109500366Y-68689281D01*
X108270000Y-68095311D02*
X108588198Y-67777113D01*
X107951802Y-67777113D02*
X108270000Y-68095311D01*
X103164689Y-62990000D02*
X103482887Y-62671802D01*
X103482887Y-63308198D02*
X103164689Y-62990000D01*
X113375311Y-62990000D02*
X113057113Y-63308198D01*
X113057113Y-62671802D02*
X113375311Y-62990000D01*
X108270000Y-57884689D02*
X107951802Y-58202887D01*
X108588198Y-58202887D02*
X108270000Y-57884689D01*
%TO.C,R18*%
X99432779Y-62930000D02*
X99107221Y-62930000D01*
X99432779Y-63950000D02*
X99107221Y-63950000D01*
%TO.C,R17*%
X99432779Y-67730000D02*
X99107221Y-67730000D01*
X99432779Y-68750000D02*
X99107221Y-68750000D01*
%TO.C,R16*%
X84008748Y-61950000D02*
X84531252Y-61950000D01*
X84008748Y-60530000D02*
X84531252Y-60530000D01*
%TO.C,R9*%
X191058578Y-63830000D02*
X190541422Y-63830000D01*
X191058578Y-65250000D02*
X190541422Y-65250000D01*
%TO.C,R8*%
X191058578Y-61760000D02*
X190541422Y-61760000D01*
X191058578Y-63180000D02*
X190541422Y-63180000D01*
%TO.C,R7*%
X191058578Y-59730000D02*
X190541422Y-59730000D01*
X191058578Y-61150000D02*
X190541422Y-61150000D01*
%TO.C,R15*%
X201360000Y-57578748D02*
X201360000Y-58101252D01*
X202780000Y-57578748D02*
X202780000Y-58101252D01*
%TO.C,R14*%
X198760000Y-57578748D02*
X198760000Y-58101252D01*
X200180000Y-57578748D02*
X200180000Y-58101252D01*
%TO.C,R13*%
X196260000Y-57578748D02*
X196260000Y-58101252D01*
X197680000Y-57578748D02*
X197680000Y-58101252D01*
%TO.C,R12*%
X193660000Y-57553748D02*
X193660000Y-58076252D01*
X195080000Y-57553748D02*
X195080000Y-58076252D01*
%TO.C,R2*%
X100460000Y-73777221D02*
X100460000Y-74102779D01*
X101480000Y-73777221D02*
X101480000Y-74102779D01*
%TO.C,LED2*%
X103730000Y-75825000D02*
X103730000Y-73140000D01*
X101810000Y-75825000D02*
X103730000Y-75825000D01*
X101810000Y-73140000D02*
X101810000Y-75825000D01*
%TO.C,R11*%
X90332779Y-60530000D02*
X90007221Y-60530000D01*
X90332779Y-61550000D02*
X90007221Y-61550000D01*
%TO.C,J6*%
X74170000Y-83795000D02*
X74170000Y-81255000D01*
X74170000Y-83795000D02*
X76710000Y-83795000D01*
X74420000Y-83545000D02*
X74420000Y-74195000D01*
X95280000Y-83545000D02*
X74420000Y-83545000D01*
X95280000Y-74195000D02*
X95280000Y-83545000D01*
X74420000Y-74195000D02*
X95280000Y-74195000D01*
%TO.C,R10*%
X99432779Y-64530000D02*
X99107221Y-64530000D01*
X99432779Y-65550000D02*
X99107221Y-65550000D01*
%TO.C,R5*%
X99107221Y-67150000D02*
X99432779Y-67150000D01*
X99107221Y-66130000D02*
X99432779Y-66130000D01*
%TO.C,R3*%
X99107221Y-58850000D02*
X99432779Y-58850000D01*
X99107221Y-57830000D02*
X99432779Y-57830000D01*
%TO.C,C6*%
X110010000Y-73077221D02*
X110010000Y-73402779D01*
X111030000Y-73077221D02*
X111030000Y-73402779D01*
%TO.C,C5*%
X118010000Y-73077221D02*
X118010000Y-73402779D01*
X119030000Y-73077221D02*
X119030000Y-73402779D01*
%TO.C,R1*%
X76907221Y-60250000D02*
X77232779Y-60250000D01*
X76907221Y-59230000D02*
X77232779Y-59230000D01*
%TO.C,SW1*%
X104020000Y-82940000D02*
X104020000Y-83390000D01*
X97720000Y-83390000D02*
X97720000Y-82940000D01*
X104020000Y-83390000D02*
X97720000Y-83390000D01*
X97720000Y-81640000D02*
X97720000Y-78940000D01*
X104020000Y-78940000D02*
X104020000Y-81640000D01*
X97720000Y-77190000D02*
X97720000Y-77590000D01*
X104020000Y-77190000D02*
X97720000Y-77190000D01*
X104020000Y-77640000D02*
X104020000Y-77190000D01*
%TO.C,R4*%
X99107221Y-57250000D02*
X99432779Y-57250000D01*
X99107221Y-56230000D02*
X99432779Y-56230000D01*
%TO.C,Y1*%
X117570000Y-69690000D02*
X111820000Y-69690000D01*
X117570000Y-73290000D02*
X117570000Y-69690000D01*
X111820000Y-73290000D02*
X117570000Y-73290000D01*
%TO.C,U2*%
X85930000Y-63140000D02*
X85930000Y-69150000D01*
X79110000Y-65390000D02*
X79110000Y-69150000D01*
X85930000Y-69150000D02*
X84670000Y-69150000D01*
X79110000Y-69150000D02*
X80370000Y-69150000D01*
%TO.C,R6*%
X114682779Y-73730000D02*
X114357221Y-73730000D01*
X114682779Y-74750000D02*
X114357221Y-74750000D01*
%TO.C,C3*%
X87680000Y-67402779D02*
X87680000Y-67077221D01*
X86660000Y-67402779D02*
X86660000Y-67077221D01*
%TO.C,C1*%
X77245279Y-61030000D02*
X76919721Y-61030000D01*
X77245279Y-62050000D02*
X76919721Y-62050000D01*
%TO.C,LED1*%
X68810000Y-50055000D02*
X68810000Y-52740000D01*
X70730000Y-50055000D02*
X68810000Y-50055000D01*
X70730000Y-52740000D02*
X70730000Y-50055000D01*
%TD*%
%LPC*%
D14*
%TO.C,J5*%
X93070000Y-65260000D03*
X95610000Y-65260000D03*
X93070000Y-67800000D03*
X95610000Y-67800000D03*
D15*
X93070000Y-70340000D03*
X95610000Y-70340000D03*
%TD*%
D14*
%TO.C,J7*%
X204170000Y-78100000D03*
X204170000Y-75560000D03*
X204170000Y-73020000D03*
X204170000Y-70480000D03*
D16*
X204170000Y-67940000D03*
%TD*%
D14*
%TO.C,J9*%
X200070000Y-78100000D03*
X200070000Y-75560000D03*
X200070000Y-73020000D03*
X200070000Y-70480000D03*
D16*
X200070000Y-67940000D03*
%TD*%
%TO.C,TP1*%
X78670000Y-57340000D03*
%TD*%
D14*
%TO.C,J8*%
X196370000Y-78100000D03*
X196370000Y-75560000D03*
X196370000Y-73020000D03*
X196370000Y-70480000D03*
D16*
X196370000Y-67940000D03*
%TD*%
D17*
%TO.C,J4*%
X208750000Y-60920000D03*
X208750000Y-58380000D03*
X208750000Y-55840000D03*
X208750000Y-53300000D03*
%TD*%
%TO.C,J3*%
X202020000Y-53600000D03*
X199480000Y-53600000D03*
X196940000Y-53600000D03*
X194400000Y-53600000D03*
X191860000Y-53600000D03*
X189320000Y-53600000D03*
X186780000Y-53600000D03*
X184240000Y-53600000D03*
X181700000Y-53600000D03*
X179160000Y-53600000D03*
X176620000Y-53600000D03*
X174080000Y-53600000D03*
%TD*%
%TO.C,J2*%
X154800000Y-51100000D03*
X152260000Y-51100000D03*
X149720000Y-51100000D03*
X147180000Y-51100000D03*
X144640000Y-51100000D03*
X142100000Y-51100000D03*
X139560000Y-51100000D03*
X137020000Y-51100000D03*
X134480000Y-51100000D03*
X131940000Y-51100000D03*
X129400000Y-51100000D03*
X126860000Y-51100000D03*
X124320000Y-51100000D03*
X121780000Y-51100000D03*
X119240000Y-51100000D03*
X116700000Y-51100000D03*
%TD*%
D18*
%TO.C,U1*%
X107271212Y-67877876D03*
X106917658Y-67524322D03*
X106564105Y-67170769D03*
X106210551Y-66817215D03*
X105856998Y-66463662D03*
X105503445Y-66110109D03*
X105149891Y-65756555D03*
X104796338Y-65403002D03*
X104442785Y-65049449D03*
X104089231Y-64695895D03*
X103735678Y-64342342D03*
X103382124Y-63988788D03*
D19*
X103382124Y-61991212D03*
X103735678Y-61637658D03*
X104089231Y-61284105D03*
X104442785Y-60930551D03*
X104796338Y-60576998D03*
X105149891Y-60223445D03*
X105503445Y-59869891D03*
X105856998Y-59516338D03*
X106210551Y-59162785D03*
X106564105Y-58809231D03*
X106917658Y-58455678D03*
X107271212Y-58102124D03*
D18*
X109268788Y-58102124D03*
X109622342Y-58455678D03*
X109975895Y-58809231D03*
X110329449Y-59162785D03*
X110683002Y-59516338D03*
X111036555Y-59869891D03*
X111390109Y-60223445D03*
X111743662Y-60576998D03*
X112097215Y-60930551D03*
X112450769Y-61284105D03*
X112804322Y-61637658D03*
X113157876Y-61991212D03*
D19*
X113157876Y-63988788D03*
X112804322Y-64342342D03*
X112450769Y-64695895D03*
X112097215Y-65049449D03*
X111743662Y-65403002D03*
X111390109Y-65756555D03*
X111036555Y-66110109D03*
X110683002Y-66463662D03*
X110329449Y-66817215D03*
X109975895Y-67170769D03*
X109622342Y-67524322D03*
X109268788Y-67877876D03*
%TD*%
D20*
%TO.C,C9*%
X99470000Y-73875000D03*
X99470000Y-72905000D03*
%TD*%
D21*
%TO.C,R18*%
X98482500Y-63440000D03*
X100057500Y-63440000D03*
%TD*%
%TO.C,R17*%
X98482500Y-68240000D03*
X100057500Y-68240000D03*
%TD*%
D22*
%TO.C,J1*%
X94740000Y-52780000D03*
X82700000Y-52780000D03*
D16*
X87470000Y-55490000D03*
X89970000Y-55490000D03*
X89970000Y-57490000D03*
D23*
X87470000Y-57490000D03*
%TD*%
D24*
%TO.C,C14*%
X105385000Y-69440000D03*
X106355000Y-69440000D03*
%TD*%
D25*
%TO.C,R16*%
X85295000Y-61240000D03*
X83245000Y-61240000D03*
%TD*%
D26*
%TO.C,R9*%
X189862500Y-64540000D03*
X191737500Y-64540000D03*
%TD*%
%TO.C,R8*%
X189862500Y-62470000D03*
X191737500Y-62470000D03*
%TD*%
%TO.C,R7*%
X189862500Y-60440000D03*
X191737500Y-60440000D03*
%TD*%
D27*
%TO.C,R15*%
X202070000Y-58865000D03*
X202070000Y-56815000D03*
%TD*%
%TO.C,R14*%
X199470000Y-58865000D03*
X199470000Y-56815000D03*
%TD*%
%TO.C,R13*%
X196970000Y-58865000D03*
X196970000Y-56815000D03*
%TD*%
%TO.C,R12*%
X194370000Y-58840000D03*
X194370000Y-56790000D03*
%TD*%
D28*
%TO.C,R2*%
X100970000Y-74727500D03*
X100970000Y-73152500D03*
%TD*%
D29*
%TO.C,LED2*%
X102770000Y-73202500D03*
X102770000Y-75077500D03*
%TD*%
D21*
%TO.C,R11*%
X89382500Y-61040000D03*
X90957500Y-61040000D03*
%TD*%
D30*
%TO.C,C13*%
X111355000Y-56740000D03*
X110385000Y-56740000D03*
%TD*%
D24*
%TO.C,C12*%
X107535000Y-69440000D03*
X108505000Y-69440000D03*
%TD*%
D20*
%TO.C,C11*%
X113800000Y-66785000D03*
X113800000Y-65815000D03*
%TD*%
D31*
%TO.C,C10*%
X101870000Y-60355000D03*
X101870000Y-61325000D03*
%TD*%
%TO.C,C4*%
X88470000Y-66705000D03*
X88470000Y-67675000D03*
%TD*%
D24*
%TO.C,C2*%
X77070000Y-63240000D03*
X78040000Y-63240000D03*
%TD*%
D32*
%TO.C,J6*%
X89930000Y-77600000D03*
X89930000Y-80140000D03*
X87390000Y-77600000D03*
X87390000Y-80140000D03*
X84850000Y-77600000D03*
X84850000Y-80140000D03*
X82310000Y-77600000D03*
X82310000Y-80140000D03*
X79770000Y-77600000D03*
D33*
X79770000Y-80140000D03*
%TD*%
D21*
%TO.C,R10*%
X98482500Y-65040000D03*
X100057500Y-65040000D03*
%TD*%
D34*
%TO.C,R5*%
X100057500Y-66640000D03*
X98482500Y-66640000D03*
%TD*%
%TO.C,R3*%
X100057500Y-58340000D03*
X98482500Y-58340000D03*
%TD*%
D28*
%TO.C,C6*%
X110520000Y-74027500D03*
X110520000Y-72452500D03*
%TD*%
%TO.C,C5*%
X118520000Y-74027500D03*
X118520000Y-72452500D03*
%TD*%
D34*
%TO.C,R1*%
X77857500Y-59740000D03*
X76282500Y-59740000D03*
%TD*%
D35*
%TO.C,SW1*%
X97990000Y-78290000D03*
X103750000Y-78290000D03*
X103750000Y-82290000D03*
X97990000Y-82290000D03*
%TD*%
D34*
%TO.C,R4*%
X100057500Y-56740000D03*
X98482500Y-56740000D03*
%TD*%
D36*
%TO.C,Y1*%
X112670000Y-71490000D03*
X116370000Y-71490000D03*
%TD*%
D37*
%TO.C,U2*%
X84820000Y-64090000D03*
X80220000Y-64090000D03*
X82520000Y-64090000D03*
D38*
X82520000Y-70390000D03*
%TD*%
D21*
%TO.C,R6*%
X113732500Y-74240000D03*
X115307500Y-74240000D03*
%TD*%
D39*
%TO.C,C3*%
X87170000Y-66452500D03*
X87170000Y-68027500D03*
%TD*%
D21*
%TO.C,C1*%
X76295000Y-61540000D03*
X77870000Y-61540000D03*
%TD*%
D40*
%TO.C,REF\u002A\u002A*%
X209770000Y-79990000D03*
%TD*%
D41*
%TO.C,LED1*%
X69770000Y-52677500D03*
X69770000Y-50802500D03*
%TD*%
D40*
%TO.C,REF\u002A\u002A*%
X69770000Y-71990000D03*
%TD*%
D22*
%TO.C,REF\u002A\u002A*%
X100770000Y-51990000D03*
%TD*%
%TO.C,REF\u002A\u002A*%
X76770000Y-51990000D03*
%TD*%
D42*
X116700000Y-66700000D03*
X100670000Y-60459990D03*
X76370000Y-64340000D03*
X77370000Y-64840000D03*
X76370000Y-65440000D03*
X77370000Y-65940000D03*
X86870000Y-63440000D03*
X86870000Y-64440000D03*
X104270000Y-69110010D03*
X103270000Y-69110010D03*
X107794990Y-68540000D03*
X99770000Y-60440000D03*
X98870000Y-60440000D03*
X87870000Y-63440000D03*
X87870000Y-64440000D03*
X88870000Y-63440000D03*
X88870000Y-64440000D03*
X102270000Y-69110000D03*
X115570000Y-66690000D03*
X114570000Y-77140000D03*
X115570000Y-77140000D03*
X113570000Y-77140000D03*
X108700000Y-59900004D03*
X108000000Y-60600000D03*
X149000000Y-59000000D03*
X151000000Y-59000000D03*
X153000000Y-59000000D03*
X155000000Y-59000000D03*
X157000000Y-59000000D03*
X159000000Y-59000000D03*
X161000000Y-59000000D03*
X163000000Y-59000000D03*
X165000000Y-59000000D03*
X167000000Y-59000000D03*
X120000000Y-69000000D03*
X122000000Y-69000000D03*
X124000000Y-69000000D03*
X126000000Y-69000000D03*
X128000000Y-69000000D03*
X138000000Y-69000000D03*
X136000000Y-69000000D03*
X134000000Y-69000000D03*
X130000000Y-69000000D03*
X132000000Y-69000000D03*
X148000000Y-69000000D03*
X146000000Y-69000000D03*
X150000000Y-69000000D03*
X158000000Y-69000000D03*
X156000000Y-69000000D03*
X152000000Y-69000000D03*
X154000000Y-69000000D03*
X144000000Y-69000000D03*
X140000000Y-69000000D03*
X142000000Y-69000000D03*
X178000000Y-69000000D03*
X170000000Y-69000000D03*
X176000000Y-69000000D03*
X164000000Y-69000000D03*
X172000000Y-69000000D03*
X174000000Y-69000000D03*
X166000000Y-69000000D03*
X168000000Y-69000000D03*
X162000000Y-69000000D03*
X160000000Y-69000000D03*
X180000000Y-69000000D03*
X182000000Y-69000000D03*
X184000000Y-69000000D03*
X186000000Y-69000000D03*
X188000000Y-69000000D03*
X190000000Y-69000000D03*
X205000000Y-55000000D03*
X205000000Y-53000000D03*
X205000000Y-51000000D03*
X213000000Y-75000000D03*
X213000000Y-73000000D03*
X213000000Y-71000000D03*
X213000000Y-69000000D03*
X213000000Y-67000000D03*
X213000000Y-65000000D03*
X213000000Y-63000000D03*
X213000000Y-61000000D03*
X213000000Y-59000000D03*
X213000000Y-57000000D03*
X213000000Y-55000000D03*
X213000000Y-53000000D03*
X213000000Y-51000000D03*
X148000000Y-83000000D03*
X170000000Y-83000000D03*
X154000000Y-83000000D03*
X168000000Y-83000000D03*
X156000000Y-83000000D03*
X116000000Y-83000000D03*
X162000000Y-83000000D03*
X166000000Y-83000000D03*
X160000000Y-83000000D03*
X114000000Y-83000000D03*
X152000000Y-83000000D03*
X150000000Y-83000000D03*
X164000000Y-83000000D03*
X158000000Y-83000000D03*
X172000000Y-83000000D03*
X118000000Y-83000000D03*
X146000000Y-83000000D03*
X138000000Y-83000000D03*
X144000000Y-83000000D03*
X132000000Y-83000000D03*
X140000000Y-83000000D03*
X126000000Y-83000000D03*
X142000000Y-83000000D03*
X174000000Y-83000000D03*
X134000000Y-83000000D03*
X124000000Y-83000000D03*
X120000000Y-83000000D03*
X122000000Y-83000000D03*
X136000000Y-83000000D03*
X130000000Y-83000000D03*
X128000000Y-83000000D03*
X112000000Y-83000000D03*
X176000000Y-83000000D03*
X108000000Y-83000000D03*
X110000000Y-83000000D03*
X178000000Y-83000000D03*
X182000000Y-83000000D03*
X186000000Y-83000000D03*
X190000000Y-83000000D03*
X184000000Y-83000000D03*
X194000000Y-83000000D03*
X192000000Y-83000000D03*
X188000000Y-83000000D03*
X180000000Y-83000000D03*
X196000000Y-83000000D03*
X198000000Y-83000000D03*
X200000000Y-83000000D03*
X202000000Y-83000000D03*
X204000000Y-83000000D03*
X69000000Y-83000000D03*
X71000000Y-83000000D03*
X67000000Y-81000000D03*
X67000000Y-79000000D03*
X67000000Y-77000000D03*
X67000000Y-51000000D03*
X67000000Y-53000000D03*
X67000000Y-55000000D03*
X67000000Y-57000000D03*
X67000000Y-59000000D03*
X67000000Y-61000000D03*
X67000000Y-63000000D03*
X67000000Y-65000000D03*
X86000000Y-50000000D03*
X88000000Y-50000000D03*
X90000000Y-50000000D03*
X92000000Y-50000000D03*
X92000000Y-52000000D03*
X90000000Y-52000000D03*
X88000000Y-52000000D03*
X86000000Y-52000000D03*
X211000000Y-49000000D03*
X199000000Y-49000000D03*
X207000000Y-49000000D03*
X203000000Y-49000000D03*
X209000000Y-49000000D03*
X205000000Y-49000000D03*
X201000000Y-49000000D03*
X195000000Y-49000000D03*
X193000000Y-49000000D03*
X197000000Y-49000000D03*
X181000000Y-49000000D03*
X177000000Y-49000000D03*
X185000000Y-49000000D03*
X183000000Y-49000000D03*
X187000000Y-49000000D03*
X179000000Y-49000000D03*
X191000000Y-49000000D03*
X175000000Y-49000000D03*
X189000000Y-49000000D03*
X173000000Y-49000000D03*
X171000000Y-49000000D03*
X167000000Y-49000000D03*
X163000000Y-49000000D03*
X159000000Y-49000000D03*
X153000000Y-49000000D03*
X161000000Y-49000000D03*
X155000000Y-49000000D03*
X157000000Y-49000000D03*
X169000000Y-49000000D03*
X165000000Y-49000000D03*
X143000000Y-49000000D03*
X151000000Y-49000000D03*
X133000000Y-49000000D03*
X145000000Y-49000000D03*
X139000000Y-49000000D03*
X149000000Y-49000000D03*
X141000000Y-49000000D03*
X135000000Y-49000000D03*
X147000000Y-49000000D03*
X137000000Y-49000000D03*
X113000000Y-49000000D03*
X131000000Y-49000000D03*
X115000000Y-49000000D03*
X123000000Y-49000000D03*
X117000000Y-49000000D03*
X127000000Y-49000000D03*
X121000000Y-49000000D03*
X129000000Y-49000000D03*
X119000000Y-49000000D03*
X125000000Y-49000000D03*
X111000000Y-49000000D03*
X109000000Y-49000000D03*
X107000000Y-49000000D03*
X105000000Y-49000000D03*
X213000000Y-77000000D03*
X206000000Y-83000000D03*
X208000000Y-83000000D03*
X103000000Y-49000000D03*
X101000000Y-49000000D03*
X99000000Y-49000000D03*
X67000000Y-67000000D03*
X69000000Y-49000000D03*
X71000000Y-49000000D03*
X73000000Y-49000000D03*
X75000000Y-49000000D03*
X77000000Y-49000000D03*
X79000000Y-49000000D03*
X81000000Y-49000000D03*
X83000000Y-49000000D03*
X97000000Y-49000000D03*
X95000000Y-49000000D03*
X93000000Y-49000000D03*
X85000000Y-49000000D03*
X126000000Y-71000000D03*
X126000000Y-73000000D03*
X126000000Y-75000000D03*
X126000000Y-77000000D03*
X126000000Y-79000000D03*
X126000000Y-81000000D03*
X178000000Y-81000000D03*
X178000000Y-79000000D03*
X178000000Y-77000000D03*
X178000000Y-75000000D03*
X178000000Y-73000000D03*
X178000000Y-71000000D03*
X197000000Y-65000000D03*
X199000000Y-65000000D03*
X201000000Y-65000000D03*
X203000000Y-65000000D03*
X205000000Y-65000000D03*
X117800000Y-66700000D03*
X108000000Y-73750000D03*
X106000000Y-83000000D03*
X104500000Y-73750000D03*
X106250000Y-73750000D03*
X96500000Y-74500000D03*
X96500000Y-76000000D03*
X98250000Y-76000000D03*
X98250000Y-74500000D03*
X93000000Y-83000000D03*
X91000000Y-83000000D03*
X89000000Y-83000000D03*
X87000000Y-83000000D03*
X85000000Y-83000000D03*
X83000000Y-83000000D03*
X73000000Y-83000000D03*
X77000000Y-83000000D03*
X79000000Y-83000000D03*
X81000000Y-83000000D03*
X213000000Y-79000000D03*
X67000000Y-75000000D03*
X67000000Y-69000000D03*
X194170000Y-62440000D03*
X199470000Y-61440000D03*
X194157340Y-61427340D03*
X199470000Y-60440000D03*
X194170161Y-60427411D03*
X114670000Y-65440000D03*
X109370000Y-69140000D03*
X109370000Y-70140000D03*
X115720000Y-65440000D03*
D43*
X109528158Y-65366699D03*
X108520000Y-71540004D03*
X117670000Y-62140000D03*
X107770000Y-62140000D03*
X118470000Y-62140000D03*
X106970000Y-62140000D03*
X108570000Y-62140000D03*
X116870000Y-62140000D03*
X109370000Y-62140000D03*
X116070000Y-62140000D03*
X110170000Y-62140000D03*
X115270000Y-62140000D03*
X101270000Y-67215000D03*
X98020000Y-72490000D03*
X89800000Y-66300000D03*
X89200000Y-69300000D03*
X120470000Y-65340000D03*
X108670000Y-65340000D03*
D42*
X188590000Y-60420000D03*
D43*
X107870000Y-65340000D03*
X121270000Y-65340000D03*
D42*
X188540000Y-62470000D03*
D43*
X122070000Y-65340000D03*
D42*
X188570000Y-64540000D03*
D43*
X107028051Y-65298051D03*
X102100000Y-62700000D03*
X107400000Y-61400000D03*
M02*
