%TF.GenerationSoftware,KiCad,Pcbnew,(6.0.6)*%
%TF.CreationDate,2022-06-30T18:10:47+10:00*%
%TF.ProjectId,modelh,6d6f6465-6c68-42e6-9b69-6361645f7063,v0.1*%
%TF.SameCoordinates,Original*%
%TF.FileFunction,Legend,Bot*%
%TF.FilePolarity,Positive*%
%FSLAX46Y46*%
G04 Gerber Fmt 4.6, Leading zero omitted, Abs format (unit mm)*
G04 Created by KiCad (PCBNEW (6.0.6)) date 2022-06-30 18:10:47*
%MOMM*%
%LPD*%
G01*
G04 APERTURE LIST*
G04 Aperture macros list*
%AMRoundRect*
0 Rectangle with rounded corners*
0 $1 Rounding radius*
0 $2 $3 $4 $5 $6 $7 $8 $9 X,Y pos of 4 corners*
0 Add a 4 corners polygon primitive as box body*
4,1,4,$2,$3,$4,$5,$6,$7,$8,$9,$2,$3,0*
0 Add four circle primitives for the rounded corners*
1,1,$1+$1,$2,$3*
1,1,$1+$1,$4,$5*
1,1,$1+$1,$6,$7*
1,1,$1+$1,$8,$9*
0 Add four rect primitives between the rounded corners*
20,1,$1+$1,$2,$3,$4,$5,0*
20,1,$1+$1,$4,$5,$6,$7,0*
20,1,$1+$1,$6,$7,$8,$9,0*
20,1,$1+$1,$8,$9,$2,$3,0*%
G04 Aperture macros list end*
%ADD10O,1.801600X1.801600*%
%ADD11RoundRect,0.050800X0.850000X0.850000X-0.850000X0.850000X-0.850000X-0.850000X0.850000X-0.850000X0*%
%ADD12C,1.801600*%
%ADD13C,2.101600*%
%ADD14C,3.601600*%
%ADD15RoundRect,0.050800X0.850000X-0.850000X0.850000X0.850000X-0.850000X0.850000X-0.850000X-0.850000X0*%
%ADD16O,1.828800X1.828800*%
%ADD17RoundRect,0.050800X0.863600X-0.863600X0.863600X0.863600X-0.863600X0.863600X-0.863600X-0.863600X0*%
%ADD18C,4.101600*%
%ADD19C,0.901600*%
%ADD20C,0.701600*%
G04 APERTURE END LIST*
%LPC*%
D10*
%TO.C,J5*%
X93070000Y-65260000D03*
X95610000Y-65260000D03*
X93070000Y-67800000D03*
X95610000Y-67800000D03*
D11*
X93070000Y-70340000D03*
X95610000Y-70340000D03*
%TD*%
D10*
%TO.C,J7*%
X204170000Y-78100000D03*
X204170000Y-75560000D03*
X204170000Y-73020000D03*
X204170000Y-70480000D03*
D12*
X204170000Y-67940000D03*
%TD*%
D10*
%TO.C,J9*%
X200070000Y-78100000D03*
X200070000Y-75560000D03*
X200070000Y-73020000D03*
X200070000Y-70480000D03*
D12*
X200070000Y-67940000D03*
%TD*%
%TO.C,TP1*%
X78670000Y-57340000D03*
%TD*%
D10*
%TO.C,J8*%
X196370000Y-78100000D03*
X196370000Y-75560000D03*
X196370000Y-73020000D03*
X196370000Y-70480000D03*
D12*
X196370000Y-67940000D03*
%TD*%
D13*
%TO.C,J4*%
X208750000Y-60920000D03*
X208750000Y-58380000D03*
X208750000Y-55840000D03*
X208750000Y-53300000D03*
%TD*%
%TO.C,J3*%
X202020000Y-53600000D03*
X199480000Y-53600000D03*
X196940000Y-53600000D03*
X194400000Y-53600000D03*
X191860000Y-53600000D03*
X189320000Y-53600000D03*
X186780000Y-53600000D03*
X184240000Y-53600000D03*
X181700000Y-53600000D03*
X179160000Y-53600000D03*
X176620000Y-53600000D03*
X174080000Y-53600000D03*
%TD*%
%TO.C,J2*%
X154800000Y-51100000D03*
X152260000Y-51100000D03*
X149720000Y-51100000D03*
X147180000Y-51100000D03*
X144640000Y-51100000D03*
X142100000Y-51100000D03*
X139560000Y-51100000D03*
X137020000Y-51100000D03*
X134480000Y-51100000D03*
X131940000Y-51100000D03*
X129400000Y-51100000D03*
X126860000Y-51100000D03*
X124320000Y-51100000D03*
X121780000Y-51100000D03*
X119240000Y-51100000D03*
X116700000Y-51100000D03*
%TD*%
D14*
%TO.C,J1*%
X94740000Y-52780000D03*
X82700000Y-52780000D03*
D12*
X87470000Y-55490000D03*
X89970000Y-55490000D03*
X89970000Y-57490000D03*
D15*
X87470000Y-57490000D03*
%TD*%
D16*
%TO.C,J6*%
X89930000Y-77600000D03*
X89930000Y-80140000D03*
X87390000Y-77600000D03*
X87390000Y-80140000D03*
X84850000Y-77600000D03*
X84850000Y-80140000D03*
X82310000Y-77600000D03*
X82310000Y-80140000D03*
X79770000Y-77600000D03*
D17*
X79770000Y-80140000D03*
%TD*%
D18*
%TO.C,REF\u002A\u002A*%
X209770000Y-79990000D03*
%TD*%
%TO.C,REF\u002A\u002A*%
X69770000Y-71990000D03*
%TD*%
D14*
%TO.C,REF\u002A\u002A*%
X100770000Y-51990000D03*
%TD*%
%TO.C,REF\u002A\u002A*%
X76770000Y-51990000D03*
%TD*%
D19*
X116700000Y-66700000D03*
X100670000Y-60459990D03*
X76370000Y-64340000D03*
X77370000Y-64840000D03*
X76370000Y-65440000D03*
X77370000Y-65940000D03*
X86870000Y-63440000D03*
X86870000Y-64440000D03*
X104270000Y-69110010D03*
X103270000Y-69110010D03*
X107794990Y-68540000D03*
X99770000Y-60440000D03*
X98870000Y-60440000D03*
X87870000Y-63440000D03*
X87870000Y-64440000D03*
X88870000Y-63440000D03*
X88870000Y-64440000D03*
X102270000Y-69110000D03*
X115570000Y-66690000D03*
X114570000Y-77140000D03*
X115570000Y-77140000D03*
X113570000Y-77140000D03*
X108700000Y-59900004D03*
X108000000Y-60600000D03*
X149000000Y-59000000D03*
X151000000Y-59000000D03*
X153000000Y-59000000D03*
X155000000Y-59000000D03*
X157000000Y-59000000D03*
X159000000Y-59000000D03*
X161000000Y-59000000D03*
X163000000Y-59000000D03*
X165000000Y-59000000D03*
X167000000Y-59000000D03*
X120000000Y-69000000D03*
X122000000Y-69000000D03*
X124000000Y-69000000D03*
X126000000Y-69000000D03*
X128000000Y-69000000D03*
X138000000Y-69000000D03*
X136000000Y-69000000D03*
X134000000Y-69000000D03*
X130000000Y-69000000D03*
X132000000Y-69000000D03*
X148000000Y-69000000D03*
X146000000Y-69000000D03*
X150000000Y-69000000D03*
X158000000Y-69000000D03*
X156000000Y-69000000D03*
X152000000Y-69000000D03*
X154000000Y-69000000D03*
X144000000Y-69000000D03*
X140000000Y-69000000D03*
X142000000Y-69000000D03*
X178000000Y-69000000D03*
X170000000Y-69000000D03*
X176000000Y-69000000D03*
X164000000Y-69000000D03*
X172000000Y-69000000D03*
X174000000Y-69000000D03*
X166000000Y-69000000D03*
X168000000Y-69000000D03*
X162000000Y-69000000D03*
X160000000Y-69000000D03*
X180000000Y-69000000D03*
X182000000Y-69000000D03*
X184000000Y-69000000D03*
X186000000Y-69000000D03*
X188000000Y-69000000D03*
X190000000Y-69000000D03*
X205000000Y-55000000D03*
X205000000Y-53000000D03*
X205000000Y-51000000D03*
X213000000Y-75000000D03*
X213000000Y-73000000D03*
X213000000Y-71000000D03*
X213000000Y-69000000D03*
X213000000Y-67000000D03*
X213000000Y-65000000D03*
X213000000Y-63000000D03*
X213000000Y-61000000D03*
X213000000Y-59000000D03*
X213000000Y-57000000D03*
X213000000Y-55000000D03*
X213000000Y-53000000D03*
X213000000Y-51000000D03*
X148000000Y-83000000D03*
X170000000Y-83000000D03*
X154000000Y-83000000D03*
X168000000Y-83000000D03*
X156000000Y-83000000D03*
X116000000Y-83000000D03*
X162000000Y-83000000D03*
X166000000Y-83000000D03*
X160000000Y-83000000D03*
X114000000Y-83000000D03*
X152000000Y-83000000D03*
X150000000Y-83000000D03*
X164000000Y-83000000D03*
X158000000Y-83000000D03*
X172000000Y-83000000D03*
X118000000Y-83000000D03*
X146000000Y-83000000D03*
X138000000Y-83000000D03*
X144000000Y-83000000D03*
X132000000Y-83000000D03*
X140000000Y-83000000D03*
X126000000Y-83000000D03*
X142000000Y-83000000D03*
X174000000Y-83000000D03*
X134000000Y-83000000D03*
X124000000Y-83000000D03*
X120000000Y-83000000D03*
X122000000Y-83000000D03*
X136000000Y-83000000D03*
X130000000Y-83000000D03*
X128000000Y-83000000D03*
X112000000Y-83000000D03*
X176000000Y-83000000D03*
X108000000Y-83000000D03*
X110000000Y-83000000D03*
X178000000Y-83000000D03*
X182000000Y-83000000D03*
X186000000Y-83000000D03*
X190000000Y-83000000D03*
X184000000Y-83000000D03*
X194000000Y-83000000D03*
X192000000Y-83000000D03*
X188000000Y-83000000D03*
X180000000Y-83000000D03*
X196000000Y-83000000D03*
X198000000Y-83000000D03*
X200000000Y-83000000D03*
X202000000Y-83000000D03*
X204000000Y-83000000D03*
X69000000Y-83000000D03*
X71000000Y-83000000D03*
X67000000Y-81000000D03*
X67000000Y-79000000D03*
X67000000Y-77000000D03*
X67000000Y-51000000D03*
X67000000Y-53000000D03*
X67000000Y-55000000D03*
X67000000Y-57000000D03*
X67000000Y-59000000D03*
X67000000Y-61000000D03*
X67000000Y-63000000D03*
X67000000Y-65000000D03*
X86000000Y-50000000D03*
X88000000Y-50000000D03*
X90000000Y-50000000D03*
X92000000Y-50000000D03*
X92000000Y-52000000D03*
X90000000Y-52000000D03*
X88000000Y-52000000D03*
X86000000Y-52000000D03*
X211000000Y-49000000D03*
X199000000Y-49000000D03*
X207000000Y-49000000D03*
X203000000Y-49000000D03*
X209000000Y-49000000D03*
X205000000Y-49000000D03*
X201000000Y-49000000D03*
X195000000Y-49000000D03*
X193000000Y-49000000D03*
X197000000Y-49000000D03*
X181000000Y-49000000D03*
X177000000Y-49000000D03*
X185000000Y-49000000D03*
X183000000Y-49000000D03*
X187000000Y-49000000D03*
X179000000Y-49000000D03*
X191000000Y-49000000D03*
X175000000Y-49000000D03*
X189000000Y-49000000D03*
X173000000Y-49000000D03*
X171000000Y-49000000D03*
X167000000Y-49000000D03*
X163000000Y-49000000D03*
X159000000Y-49000000D03*
X153000000Y-49000000D03*
X161000000Y-49000000D03*
X155000000Y-49000000D03*
X157000000Y-49000000D03*
X169000000Y-49000000D03*
X165000000Y-49000000D03*
X143000000Y-49000000D03*
X151000000Y-49000000D03*
X133000000Y-49000000D03*
X145000000Y-49000000D03*
X139000000Y-49000000D03*
X149000000Y-49000000D03*
X141000000Y-49000000D03*
X135000000Y-49000000D03*
X147000000Y-49000000D03*
X137000000Y-49000000D03*
X113000000Y-49000000D03*
X131000000Y-49000000D03*
X115000000Y-49000000D03*
X123000000Y-49000000D03*
X117000000Y-49000000D03*
X127000000Y-49000000D03*
X121000000Y-49000000D03*
X129000000Y-49000000D03*
X119000000Y-49000000D03*
X125000000Y-49000000D03*
X111000000Y-49000000D03*
X109000000Y-49000000D03*
X107000000Y-49000000D03*
X105000000Y-49000000D03*
X213000000Y-77000000D03*
X206000000Y-83000000D03*
X208000000Y-83000000D03*
X103000000Y-49000000D03*
X101000000Y-49000000D03*
X99000000Y-49000000D03*
X67000000Y-67000000D03*
X69000000Y-49000000D03*
X71000000Y-49000000D03*
X73000000Y-49000000D03*
X75000000Y-49000000D03*
X77000000Y-49000000D03*
X79000000Y-49000000D03*
X81000000Y-49000000D03*
X83000000Y-49000000D03*
X97000000Y-49000000D03*
X95000000Y-49000000D03*
X93000000Y-49000000D03*
X85000000Y-49000000D03*
X126000000Y-71000000D03*
X126000000Y-73000000D03*
X126000000Y-75000000D03*
X126000000Y-77000000D03*
X126000000Y-79000000D03*
X126000000Y-81000000D03*
X178000000Y-81000000D03*
X178000000Y-79000000D03*
X178000000Y-77000000D03*
X178000000Y-75000000D03*
X178000000Y-73000000D03*
X178000000Y-71000000D03*
X197000000Y-65000000D03*
X199000000Y-65000000D03*
X201000000Y-65000000D03*
X203000000Y-65000000D03*
X205000000Y-65000000D03*
X117800000Y-66700000D03*
X108000000Y-73750000D03*
X106000000Y-83000000D03*
X104500000Y-73750000D03*
X106250000Y-73750000D03*
X96500000Y-74500000D03*
X96500000Y-76000000D03*
X98250000Y-76000000D03*
X98250000Y-74500000D03*
X93000000Y-83000000D03*
X91000000Y-83000000D03*
X89000000Y-83000000D03*
X87000000Y-83000000D03*
X85000000Y-83000000D03*
X83000000Y-83000000D03*
X73000000Y-83000000D03*
X77000000Y-83000000D03*
X79000000Y-83000000D03*
X81000000Y-83000000D03*
X213000000Y-79000000D03*
X67000000Y-75000000D03*
X67000000Y-69000000D03*
X194170000Y-62440000D03*
X199470000Y-61440000D03*
X194157340Y-61427340D03*
X199470000Y-60440000D03*
X194170161Y-60427411D03*
X114670000Y-65440000D03*
X109370000Y-69140000D03*
X109370000Y-70140000D03*
X115720000Y-65440000D03*
D20*
X109528158Y-65366699D03*
X108520000Y-71540004D03*
X117670000Y-62140000D03*
X107770000Y-62140000D03*
X118470000Y-62140000D03*
X106970000Y-62140000D03*
X108570000Y-62140000D03*
X116870000Y-62140000D03*
X109370000Y-62140000D03*
X116070000Y-62140000D03*
X110170000Y-62140000D03*
X115270000Y-62140000D03*
X101270000Y-67215000D03*
X98020000Y-72490000D03*
X89800000Y-66300000D03*
X89200000Y-69300000D03*
X120470000Y-65340000D03*
X108670000Y-65340000D03*
D19*
X188590000Y-60420000D03*
D20*
X107870000Y-65340000D03*
X121270000Y-65340000D03*
D19*
X188540000Y-62470000D03*
D20*
X122070000Y-65340000D03*
D19*
X188570000Y-64540000D03*
D20*
X107028051Y-65298051D03*
X102100000Y-62700000D03*
X107400000Y-61400000D03*
M02*
